<mxfile modified="2024-07-16T08:40:26.987Z" host="app.diagrams.net" agent="Mozilla/5.0 (Windows NT 10.0; Win64; x64) AppleWebKit/537.36 (KHTML, like Gecko) Chrome/126.0.0.0 Safari/537.36" etag="wgKW9cm2YCLOwovcpy5M" version="24.6.4" type="device">
  <diagram id="Ht1M8jgEwFfnCIfOTk4-" name="Page-1">
    <mxGraphModel dx="1039" dy="738" grid="1" gridSize="10" guides="1" tooltips="1" connect="1" arrows="1" fold="1" page="1" pageScale="1" pageWidth="1169" pageHeight="827" math="0" shadow="0">
      <root>
        <mxCell id="0" />
        <mxCell id="1" parent="0" />
        <mxCell id="8nGL6lLDQIwl6OMTAhl0-2" value="ZooKeeper-1" style="shape=image;imageAspect=0;aspect=fixed;verticalLabelPosition=bottom;verticalAlign=top;image=data:image/png,iVBORw0KGgoAAAANSUhEUgAAAgAAAAIACAYAAAD0eNT6AAAABHNCSVQICAgIfAhkiAAAAAlwSFlzAAAOxAAADsQBlSsOGwAAABl0RVh0U29mdHdhcmUAd3d3Lmlua3NjYXBlLm9yZ5vuPBoAACAASURBVHic7N1noB1VvTbwZ83MrufsU1IJAQGVIiCIBAnFK3gVEVAEJSggqBcpCQmkAILoPd6rooCUkNBtKKDBSwsJ3YggAV9AqooKUgIh7fRdZ2b93w9JACVln3P2njXl+X2515DseXKyZ+aZNWvWKBBRwy2YeXEuj+WTFDDJsvROUN5WtuWPt5XbYVt+QSk/Z1k6bVuubSltiRJlKQ1L+aohAUSh5udR03mIlYZtW7DSgJMS2I5AWQLHEUAJfN+GiILv2vB8C75nQbsaSmpIYRAp1YfGhAK02KLFgoISX1ta65QvYlW1tiu+tgd8cXq0Tq3QYr+mlPqLr+3HS20vPT6l6+ZagyIQ0TqN2q+JEmnh2ae/R7npQy3L299R7m5ppzIx5ZQLKafqKKUDzVJxC3BRgJO1kWvz1p7gG8D3bZRLGfgVDVv6kVHdgR44RCy4ftZ1vcyA62Vf9XXqGV/sh1K2vfigCy54I8AoRLHCAkBUp7tnzhzlWdaxttIHZ5zS7pnU4Ph0quyYzFRxC/DsDuTbNNI5P5BturUUyoMpKLcfObUGUI0pGsNR8/Jupday3PNzf/J86650avBXn/zhNX3GAhFFCAsA0UbcMqdrXNotnpJOVw/JpAZ3zmX6CsrgyW49Xzsoe2ORaXOQK7hGs1TLGZQHgBzehK2qRrMAgBYLlVqhv1JtfU4jc1vW86498NJLe03nIgojFgCid7h1+nkHZTKVE7Op/gNas91jgx7G3xTXz6CqR6N1LOCkwpMLALRvYaAvi7S3AilVNB3nLVosVKrtq2pu/hHx1M8PumTuraYzEYUFCwAl3h0zzvpyJlOd1pLp/nAmXUyZzvPvPJ1BBWPRNtaHZZkfgdgULQoD3Tlk/ddDMSLw7ypuS7VUaf+j6+cuP+ziC282nYfIJBYASqRbT//m5/Pp/jmt2e5Jpu/jb4zWNga9LdA2XuA44bri3xzPc1DssdAiy4AQjaK8U83NucXyqMdKuv38z1383cWm8xAFjQWAEuPWM76xbT5dPj+X6v9sLtOXN51nU4rVUciMyiOb90xHGZFqOYPaQBk5tdJ0lE0qVduK5Vr7HSrtnv2p713xmuk8REFgAaBYE4i64/RzT8xn+s5sy6/a3rKCmSk/XL52UMYEdIzzjM6ub7SBnjwy7muwlNlJi5ujtYVSbdQ/y27+kkMuvPRy03mImokFgGJpydSu1lKu/5JCrvu4XLo/azpPPUq1TmTH5JHOhLukDFetmobbW0LGWm06Sl3KtbZSsTz6l95AYeZnrukqmc5D1GgsABQri6eftZXKunPbsis/m06VbdN56iIKg94EdEyQWF31b4iIQv+aDFr0K5H5u3p+RveXxjxUqrT/1xGXf/dF03mIGoUFgGLhlqnnfaA13//z9tY3J1mWF5nvtacz8DLj0NoR7qHxRisO5GCXl8NRFdNR6qbFkd7BcQ+XkPvqERdeyCJAkReZAyXRhiyadc4OKXvgJ+2tK/Zt2Dr6Aam4BTgdbcjm4znkvznVagZeXy8yKloL92ntSG9x/GMlZI9jEaAoi9QBk2i928/64ZY5/cYN7a3LPxalK/71irXRaB2fht2g9fqjyvMclNZUkbdWmY4yZFps6S+OfVjn81/4VNdF4X7MgWgDInfgpGRb0HVUum1wq6va8itOSDkVy3Se4Risjkf7RAthWFY4DERb6F9toUUtMx1lWFwv6/cMjr9p2Y7Fr5188jXJupdDkcYCQJGxcObZp7e3LP9BLj0YiVn9GzJYm4COLRGZCXCBEYW+1Wm04BXTSYatUiuU1gxsOetzl51/teksRPVgAaDQ+7/p35zckV9zc1vLyq1MZxmJQXciOrZM5v3+evWuzKJVvWw6xvCJQl957Mv9lYmHHHnpt/5iOg7RprAAUGhJV5d192D/z0e1Ljs2ivf532nA3RKdW4ZzSdxQEYXe1Wm0RngkAAA8LyNrBre6sTT55ROmTLmZrY9CKdIHVYqv38w475CxheU35TM9baazjNRAbQt0TjSdIkJEoW91Ci141XSSEStWOvsGylt8+TOXfG+h6SxE/44FgEJl8fS5GSvz0p2dhWWfsEL6EpmhGKhtgc4tFe/5D5Uo9K5y0Kqivyy/1hZ6ihPvHtO382cnXXMyJwlSaLAAUGj85rSuSaMKy+4r5Lo7TGdphFJ1NAoTU1Dcy4ZHFPpXAnlruekkDVGsdPavGtzu00fNPe8R01mIABYAComFM79x2djCy9NtpxaL72TFLSA3tg12ird/R8L3bVTXDCIdscWCNsbXKVndt811h11ywUmmsxDF4mBL0bXwlIsnZtpe+n1n6xvvNZ2lUVw/C7tzdGxf6hO0aiUN3bcSKSs6ywZvTl9p/CtVf7vJh1541pums1ByRXIhFYqHW0//5uc7xjz9UpxO/los6PwYnvwbKJOtQbdMgNaO6SgN055fsU1b9rlXbj/9zKNMZ6Hk4ggAGXHX7DOuHVVYdqJlRX+i3zsN6q3RMZ7zvJqhv7sFeT9eS++LWFjTt811n774R183nYWShwWAAvXTr3RlJ45bs6Sz9fXJprM02mBtPDomcpdqpv4VDvJWNJcM3pS+4hZ/8f3t9vrURWcWTWeh5ODRigKzaNY5O7RkV/6xJdvTbjpLo1XcAlrGF6DseI1ohI3v26isHkDG6jcdpeEGy6N6uqUw6fM/uOQl01koGTgHgAKx8IxvHNDRsuzZOJ78tViwCu08+QfAtn1YraMgMTx0tea6O7dIrfrr4pnfOMh0FkqG+O1FFDqLZp954pj2lx9Ip4pp01maoaQnIF/wTMdIjFxLBSW1jekYTZFOlVKj2v9596Izzp5mOgvFn206AMXb4tmzLxrb9vL5dsTX8t+YUnU02idYvJkWsEzeQ3Ewj5SK3y1zS2mVz/Ye8rk9D87fuHTp/abzUHxxBICa5q45s64a0/bKbBWDJX03xNcOMmMyXObXAAUg25mFlpTpKE2hlMa4tlfOWjxn9k9MZ6H4YgGgprhnzukLxhReOTmuJ38AqGALZLLx/fuFXTpdQ9ne2nSM5lGCsYWXv3rXmdNvNx2F4okDl9Rw95457YHOwvKPm87RTKVaBwoTs9yBTBOFwZVVZK1u00maas3AVksOvnBurPcpCh5HAKih7jlz+u/jfvLXYiHd0cqTfxgogV1oh0i8D2WjC8sOvHvO6UtM56B4ifdeQ4G676zpvx1VeP2jpnM0W9HbAtkWzvoPi1y+jCJifCtgndFtrx1wz5nT7zOdg+KDBYAa4r6zTruzo/X1A03naDbPz6BtHCf9hU1htAdPt5qO0XSjCq9/4t6zpt9pOgfFAwsAjdi9Z51xfUfrG4eazhGEijUOtsMCEDa27aOWGW86RiA6W944dNGcmb8wnYOijwWARmTRrNnzOlpf/bLpHEGouAW0j+OLfsKq0FFERUaZjtF8SjC27ZXj7pwz5xLTUSjaWABo2BbNmjVrbPvL0xIzGS7XwYl/IaYAINdhOkYgFICxrS+fsWjmmTNNZ6Ho4vGMhuX2M849dHzHiwtty03Ed6hU60TbxIzpGFSH/pVAXr1pOkYgtNiyauC9nznsoh8uMp2FoocjADRki6ads8OYwqu3JuXkDwBOIf4TzOIi1ZpFUmZpWMpXnfllt90x8+xdTGeh6GEBoCG54dTzOwsdbz6RTpXiuQbrBhRrY5Bv473/qMjlKyjpiaZjBCbtlJ323Mqlt57RlYz7H9QwLAA0JOPaX/ljLtOXnMthUUi1ZU2noCHKtjuAJGaACvlsX6GQWfG46RwULSwAVLd75pxxc0d+5ftN5wjSYG00X/UbQZlsFUWZYDpGoNpbVrzvrjNPv9F0DooOFgCqy6LZs0/pLLz2BdM5gpYq5ExHoGFKt6VNRwjc6NZlX1o8Z9bXTeegaEjOGBkN223Tu3Ye1/m3Z1JOxTadJUil2ii0TUzeSSROkvREwHqul/F71my786Hzz/+b6SwUbhwBoE1a0tXltLcu+33STv4AYLW0mI5AI2Tn8qYjBC7lVO2W9tUPS1cXj++0SfyC0CbVij23t+a6R5vOEbSy247WDs78j7qWQgllP3FfX7Rk14y9t9h7i+kcFG4sALRRd54+57jO1mWHmM5hgk61m45AjZJN5r9lZ+trhy8+/cyjTeeg8OIcANqgW8/o6hhbeGl5JjWYuGfgXD+L7NhOKDspy8nEm4hCdVUvHFU2HSVwlVprtc/bcsJhP/hBj+ksFD4cAaANakmv/l0ST/4AUJXRPPnHiFKCirWF6RhGZNODmYwU7zGdg8KJBYDeZdGsOTM6Wt/Y3XQOE0Qs5Efx5B83+YKfqIWB3qm95fW9Fs0+6xTTOSh8krlH0EYtnt7VVuh4aWU2NZjIN98Uq2PRvlXiHnhIhP4VQN5K1iOB61Xdlmp/7/vGHXJ5V7/pLBQeHAGgf2FnVy9O6skfAKx8Iu96JILKJfexzkyqmLGzq281nYPChQWA3nLbzG9/pqPlzf1M5zCl5uXQOoqP/sVVoVCCK8lbF2C9jtY3P377GeceajoHhQcLAAEApKvL6swt+6VladNRjKliFO+JxZkS1KxxplMYYymNjvyKX5jOQeHBAkAAgEUDA5fns71tpnOYIgDynaZTULNlWpI9wTOf7em8a9asH5nOQeHACx7CLeecM3p86tU3007ZMZ3FlFKtE20TEzv1IVGKK2rIWN2mYxjjelmvf2D8+IMvuSS5PwQCwBEAApD3B29L8skfAHQquRPEksazk7ky4Hopp+Iox/2V6RxkHgtAwt0641t7dubf3N90DpNEFFo7kjv3IWmyrcldE2C9jtYVn7j99HN3M52DzGIBSLjWbPeNluWbjmFUyR0FJ80CkBSZbA0VPcp0DKMs5at8pv8G0znILBaABLt99rmfbG95cwfTOUyTVHIfDUsqz0n2bQAAaG9ZvuudM8490HQOMocFIMFaU93XKZXsWdEQhRYO/ydOvs1Fwr/5UEqQa1lzrekcZA4LQEItnHn2Zwr5le8xncO0ktuOVDrZt0CSKJ12UdWjTccwrpBb9b47Z37jE6ZzkBksAAmVS/XPT/Y0qLW0zdn/SeXZiV324i0KQC7de4XpHGQGC0AC3T7jvIPbWlZtbTpHGGQKrEFJleZrHwAAhfyq7W+Zfs7HTOeg4LEAJFBLrvtSpXjfu+blkGvxTMcgQ/ItFfjCxZ+UEhRyffNM56DgsQAkzJ1nnPeBtvzKHU3nCIOa5hBwoilBFZwHAABt+ZW73nX6WTwuJAwLQMI4zsBVvPpfy0qnTUcg01I50wlCwbI0rHRlrukcFCwWgARZcPYP2tvzqxK96t96AiDfztn/SZdrrSX+ccD1CrnV/7lkaler6RwUnESv/540tV7r9J6WCSx9AHykkPK5ABAB7kAONlzTMcLA7pfMqQAuNB2EgsECkCC9gxMP7RucaDpGeKwwHYAodA4DC0Bi8BmohLjiSzfuJpY8bToHEYWb1uoD02865q+mc1DzcTg4IbQlJ5nOQEThZ1n6BNMZKBgsAAlw8VELcgo4xnQOIoqEr3QdsIS3hxOABSABsunaEQA6TecgoihQW4ydsPzTplNQ87EAJICGdbTpDEQUIZY+znQEaj5OAoy5S77y0450Lf0mFLjmKRHVq1Sy/HFn/uL4oukg1DwcAYi5jJs6nCd/IhqifFacg02HoOZiAYg5UWqK6QxEFD025AumM1Bz8RZAjF3ylZ92pNz0CgVw0XsiGqqBai01ftbNU8qmg1BzcAQgxlJe5iCe/IlomArZTPWTpkNQ87AAxJgS4aM8RDRsIupTpjNQ87AAxJRAFICDTOcgoihTvIiIMRaAmLrimBt3B7Cl6RxEFGnbzT36V+8zHYKagwUgppTi8D8RjZztaN4GiCkWgJgSqI+bzkBE0ScAC0BMsQDE0IKjFtgA9jadg4iiT0H+o6uri+eKGOI/agytzFR3B1AwnYOIYqFj7Is77Wg6BDUeC0AMWWLvZzoDEcWI7+9rOgI1HgtADAmEBYCIGsfCPqYjUOOxAMSQgDsrETWQCEcAYojvAoiZ645aMKqadteYzkFEsSI+pGPGDcf1mw5CjcMRgJipptzdTWcgothRlrZ2MR2CGosFIG4s7GY6AhHFj6Xkg6YzUGOxAMQPd1IiajitZFfTGaixWADiRjgCQESNZ8HixUXMsADEzwdMByCi+BFwBCBuWABiZO5RC8YCaDWdg4hiacwlX/lph+kQ1DgsADGSSrnbmc5ARPGVrqW3NZ2BGocFIEZ8S21rOgMRxZcA25jOQI3DAhAjSvS2pjMQUXwpC9uazkCNwwIQI0qpbU1nIKJY4whAjLAAxIgItjSdgYhiTFgA4oQFIEYUMMZ0BiKKNR5jYoQFIEaEOycRNddo0wGocVgA4oU7JxE1kfAYEyMsADHR1dVlAeg0nYOI4kyNFghfIx8TLAAxsdXzO3cAsE3nIKJYS11+7A0F0yGoMVgAYqJq+y2mMxBRIrSZDkCNwQIQF46XMR2BiOLPEZU2nYEagwUgJmzulEQUAJ/HmthgAYgJ7pREFASxfY42xgQLQEyIbXGnJKKm42hjfPBxjhB6/OqTUmnfbpWU3QHPa4Flt/i+3uTM2+XLJmz7+vKtTw0qIxEl08QJr105YavlL2/q99i2NQDtF+E4ReX6vTXbH5x08jVuMAmpXiwABi1YcJS9w5rRe4qyJongA0phBwh2BPAe8N+GiOJDALwKhReUVi+IJX+Fj//397Grnpwy5WbfdLik4kkmYE9fceqOGtanBfJxpfAfANpNZyIiMqRPBL9XFh4A/MV7nHL1300HShIWgAA8c8WpnRo4ShSOB9S+4M+diOhdFPCEKPzCEn3T7qdetdJ0nrjjiaiJnrxq+u6WeN8QWEcCwokzRER1UTVA/s+2rPN3O3nes6bTxBULQBM8deUpe4iyz4HIF8CfMRHRSNyvRb6159QrHzUdJG54cmqgJ+dN20Y5cikEnzOdhYgoTkRwi7a9mZNOvuZV01niggWgAR6/+qSULc5UCL4LoNV0HiKimCoBuLDVtc/ffsblVdNhoo4FYISevGr67kr8mwB8wHQWIqJEUHheazlmz6lXPmM6SpRxJcARePKqqccr8R8BT/5ERMER7GIr9difrpp6uukoUcYRgGH464+/VihVs9cqhaNNZyEiSjZ1Y1rLybtMu2LQdJKoYQEYosfmTRudseVOASabzkJERACAxy3oQ7l2wNCwAAzBn648ZVuIdQ8UdjCdhYiI/sVLWuNTe0674h+mg0QFC0Cdnpo3bRex5T4AE0xnISKiDXpD+eqgD502/3nTQaKABaAOz86furVr4Q8K2Np0FiIi2qQ3AL3fHqde9bLpIGHHpwA24/GrTxrjWbiPJ38iokjYErDue/ba08ebDhJ2LACb8Pz8qa2Odu4GsKPpLEREVLf3e5678Onr57SYDhJmLACbULNxpQB7ms5BRERDtpcUi9eZDhFmLAAb8dQVp54EwXGmcxAR0fAI1BefunLa10znCCtOAtyAp688ZVcN6zEAedNZiIho+BRQ0cqe/OFTLn/adJaw4QjAv3n86pNSGtZN4MmfiCjyBMgq8a9f0tXlmM4SNiwA/8bWzkwAu5rOQUREDbNb5xYrZpgOETa8BfAOz86furVn4c/gK32JiOJmQEF/4EOnXvW66SBhwRGAd/AtuQQ8+RMRxVFBYF1sOkSYcARgnaeuPGUPgfUE+DMhIootLTJpz6lXPmE6RxhwBGAdgfUt8ORPRBRrlmWdbTpDWPCEB+CJ+VM/YFl4DixERERxp5WvduMLg3jCAwDYlpwD/iyIiJLAEhtnmg4RBokfAXj86pPabe0sB5AznYWIiJpPARWppCfsMfPSXtNZTEr8Va/j20eDJ38iosQQICu52udN5zAt8QVAoL5sOgMREQVLCRJ/7E/0LYCnrz1tO+3pF5HwnwMRUQIJoN+7x6lXvWw6iCmJHgHQrn8IePInIkoiJUodbDqESYkuAErhQNMZiIjIDCUq0eeAxBYAESiB+pjpHEREZMwBIskdBU5sAXjqiqm7AxhjOgcRERkz7tlrTkvs218TWwCg1CTTEYiIyCzt+4k9FyS3AEB2NJ2AiIjM0paV2HNBYguAAIn9RyciorVUgi8GE1sAFAsAERFJcs8FiSwAIlBQ2M50DiIiMk29z3QCUxJZAJ645qQcgJTpHEREZJqkl/z0K1nTKUxIZAHIWLmC6QxERBQO7QOFRJ4TElkAajU3kf/YRET0bo7jJfKc4JgOYEgKwEumQ4SJUiqTymYnms5BRM3lVqvLROua6Rxh4orKmM5gQmKXQKR/5S69cj+rY9zDpnMQUXNZ2t9b7TLlj6ZzkHmJvAVAG+CovOkIRBQA7XNfJwAsALSOhs2DAlESiMqZjkDhwAJAa/nCgwJRAvgpm/s6AWABoHWU5fCgQJQE2ue+TgBYAGg9m/cFiZJAi2YBIAAsAPQ2roxIlAh2Ih95o3djASAAgFIOvwtESaCEj38TABYAIiKiRGIBoLW0z+8CUQLYXACO1uFBn4iIKIFYAAgAvwhESeFr7u60Fr8IBADQojgsSESUICwAtA4LAFEiKM19nQCwANA6lsWvAlEy8DFAWotHfSIiogRiASAAgBbhd4EoAZS2OQJAAFgAiIiIEokFgAAAls37gkSJoDjaR2vxi0BElCA86NN6/C4QAEBr8UxnIKIA2Mo1HYHCgQWAAACWQsV0BiJqPt/T3NcJAAsAreOLqprOQEQBsFj2aS0WAFpLCw8KRAkgwhEAWosFgAAAIj4PCkQJYFvpsukMFA4sAAQAsGHxoECUALalWPYJAAsArSPK40GBKAk0WPYJAAsAracUDwpESWBzX6e1WAAIACBl3gIgSgRtcbSPALAA0DqSqfKgQJQElseFgAgACwCtIwIeFIiSwLK5rxMAFgBaRyAuIKZjEFGzVVkAaC0WAAIAaDtdgbAAEMWfqplOQOHAAkAAgDxQ4vmfKAGsatF0BAoHFgBaa2B5kbcAiOJOgJ25DgCtpUwHoPDwnv+VVlaK3wmiuBLR9s5fsE3HoHDgCAC9TcM3HYGImkm4j9NbWADoLUrBM52BiJpHwH2c3sYCQG8R0Tw4EMWZCB8BpLewANBblICPBxHFmnAfp7ewANBbBCwARHGmoKqmM1B4sADQ20Tz4EAUZ6L5zg96CwsAvUXA54OJYo4FgN7imA5AjSELFtiVLXsmekpXWjtG96pdpgxnOJ8rhBHFmAhKQ/0zA3+4clzK9idZsLaCFt+3rX9mS5Un1YEze5uRkYLDAhBh8sjFOVelj9VQJ9Swai8LyKQB1PpXVapL5z8pCrd4cH/ZOvmMFfV9oPQ1NzERGdZTz2+Sx69OuTXveLHwXxC9D0RBIIACLK1Ry6ar1aXzb4Po72X2nf5ss0NTc/AWQERVHr1q+5rKPC1Q1ypgfwCZd/znLIB9leCilKT+WVs6/yJ56IrOzX6o1t3NyktEIaBk9eZ+S/XReYfXXP8vonAdBPts5LdlABwNpR6vPjrv8MaGpKCwAESQPH51uxL/HgDb1/HbcwLMrtnyfGXpFZ/d5Odamz84EFF0iahVG/1vS+a3VpfO/wVE3QbI++r7RJWGqBsrD1+xY6MyUnBYACLIrbnfA7DdkP6QwgQFua22dP5FsmDBBtcCt0Xqu1VARNFk4c0N/XJ56ZXb1jJ4FMBxw/jUvLLl0pEFIxNYACJm8NFLx4vC14f5x5UAs2tbr1ogi+dm3vVfZcMHByKKBxG88e+/Vn3k8p0s6IegsMsIPvrg6qNX7DaCP08GsABEjCPpYwGVHuHHHFnrsO+Qpy9seecvivivj/BziSjEUspa9s7/XXvkyj2Ush4EsNVIP1uJHD/Sz6BgsQBEjIKc0KAPOsgt5Re+cyRAV0vLNvVHiCjiUs7y9f9v5Q9z3wel7xZgXCM+WoBjN3Z7kcKJBSBCyo9dvh2Ahg2zCXBgrdP5mUiXBQCehVWANOrjiShsPOkFAHls3mhl2YsbdfJfZwv3Pas/1MDPoyZjAYgQS+z9Gv+p8sXao2P/BwByZbtXtG78JogoHHL9PSJdlqvVTQB2aPTHa60/2ujPpOZhAYgQgezfpI8+t7L0is+qA6cNQoRDAERxJKLVdl+t1B4b+00BPtmMTSioJlykULNwJcAIUcDezfto+XF16bwfQ/satsP7eEQxI9CoLp3/OATNG6ZX2Ktpn00Np0wHoPqIdFm1R8cOAMg3czt2vgMqnW3mJojIAPFc+INrmr0ZnZZqq9p3Fl8sFgG8BRARlUfGbI0mn/wBQIRzAIhiKZh926oh9f4gNkQjxwIQEcqy6ln2d+TED2QzRBSwoMq91fjJhdQcLAARYUGGtvTvMPEpAKJ4Eh1MuRettg5kQzRiLAARIQpbBLMhPgRAFEsBjQCooI5VNGIsABGhtIwPZEO8BUAUS6KDKvcqmGMVjRgLQERIUDsVbwEQxVNw5Z4FICJYACJCKYwOYjt8CoAopoLbt0cFtSEaGRaAiBBBIagNcR4AUfwENQkQQMvmfwuFAQtAVCi0BrWpAA8URBSEYIt9MBcrNGIsANERWAHgRECieAm41Ad3rKIRYQGIDGn6KoBv8VkAiGIl2Lk9wR2raERYACJDpYLaEhcDIoqZQEu98GViEcECEB2BvblReAuAKFaCfbpH8S2zEcECEBkBtmpOAiSKlYDnAFgiXTy3RAD/kSJDBVcAuBYAUbwEPar3xATeBogAFoDoCOysLJwESBQvvhfk1gR7nhToBml4WACiww1uU8J5AEQxEuzEXnGVUlxNLAJYAKJCoRbo9vgkAFEsrJ0AGOT5WAV7rKJhYwGICJEgRwDAtQCI4iLwfVlYACKCBSAiVKC3AADRvIVHFAuB78scAYgKFoDoCLYAjFsU5AAAIABJREFUcA4AUSwE/24PjgBEBQtAdAS7U/EWAFEsBF/mOQIQFSwAUSFBTwJkASCKheDLfLDzlWjYWACioxzkxkT7wU4cJqLmCLrMC4rBbpCGiwUgIhSkP+htciIgUcSJBD4HQCn0BbpBGjYWgIgQSwVeAIKfPUxEjWSixAtYAKKCBSA6gh8B4ERAomgzsw8Hf7FCw8ICEBFKJPBWLZpzeYiizMQ+rIQjAFHBAhARAhO3ALgcMFGUmRjFEyv4ixUaHhaA6DBwC4AjAESRZuBxXiMXKzQsLAARoYCewDcqAghHAYiiysQkQAuqO/CN0rCwAESEKFlpZLucCEgUSWvX8gh+MQ8NvSLwjdKwsABEhKXVKiMb5qOARNFkaDVPy9DFCg0dC0BE+IChEQAWAKJIMlTefTfNAhARLAARkbF8MwWA7wQgiiRTt++yVtHMaCUNGQtARKjJM/oR8PsAAAB8EoAokgwt5d2v9p0V/HGKhoUFIFpWB71BEc2XAhFFkZHbd4bmKtGwsABEiCj8M/iNCl8KRBQ1AoiYuAUgLxjYKA0TC0CEWBp/MrJhIwcSIhou0Z6hkTv1pImt0vCwAESJUkYKANcCIIoYY0/viJmLFBoWFoAIEWVmBIBLAhNFi4iZAiCOesrIhmlYWAAiJP3qmOeh0Bv4hvkoIFGkGBm1EyzP7jX1peA3TMPFAhAhasoUH4KHAt8wbwEQRYuJWwAKvw1+ozQSLAARI1C/C3ybYmZNcSIaHhNP7ijgwcA3SiPCAhAxluU9YGK7fBSQKBpEazMvAdI+RwAihgUgYtJ7z3gaMLAeAN8JQBQNZsr6c9n9ZrxoYsM0fCwAEaSAhUFvky8FIooIMwXgdhMbpZFhAYggX+SOoLfJWwBE0WCirCtI4BclNHIsABGUra5+UAErAt0onwQgioTAHwEUvJSaPO2PwW6UGoEFIILUgV0eIDcEuU2+FpgoIoJeulvhF0opPiYUQSwAESXa/mnAWzT0chEiGoqgy7pYcmOgG6SGYQGIqMx+pz4HINgXb/A2AFGoBf0IoAgeyu592t8C2yA1FAtAhCml5gW6Qa0D3RwRDVHAo3QK6vJAN0gNxQIQYalu78YgJwPySQCikAt2H309nbZvC3KD1FgsABGmDplRFcE1QW1PhCMARGEmfoD7qMI8Nelkvio0wlgAIq4m1jwAxUA2xlsAROEW1C0Ahd50uXZVMBujZmEBiLjCfqeuhODKQDbGWwBEoSZBlXTBZerAmcG/mpwaigUgBtJp54cABpu+Ic1HfYlCLZhHAPvSnrosiA1Rc7EAxICadPJqQOY3eztcB4Ao5ALZR+Ui9dGpPQFsiJqMBSAm0n7uexAsb/Z2uCIgUXhJ89cAWJZOpS5u9kYoGCwAMaH2/68BpfDfTd8QnwQgCidB8xcBEpylJp1cau5GKCgsADGSem3sTwD8qakbCXCVMSKqn6Dp5fyR9D5Tf9XsjVBwWABiRE2Z4ivL/yqA5j2byxEAonBqajmXGmw5iS/9iRcWgJhJ7z3jaSh1adM2wBEAonBq6vwcdX7mI6c938QNkAEsADGUduwuAP9oxmdzNUCisGpWOZc/p3v885v04WQQC0AMqUknl5SlvwRIreEfzgEAonBqzuhcVWl1rDpkRrUZH05msQDEVHrv6Y9DqSY8FcAGQBRKTdg1BXJWer9pTzX+kykMWABiLL33qgsU8EBDP5RzAIhCquH75sLM5Gl83W+MsQDEmFJdOmXJ0RC8ZDoLEUXK39KV2vGc9R9vLAAxp/Y+bY2y/SPRoDcGBrDSGBENQwP3zQHYciRf9hN/LAAJkN57xtOAfA0NGSNkASAKp4bsm75AHcdH/pKBBSAhMvuctkBETR/xB6kGhCGiJhj5zimQWdl9pt7RgDAUASwACZLdd+p8CC4a0YdwAIAonpT8T3af0+aajkHBYQFImPQ+U88C8LPhfwKHAIjCaCR7pgBXZCaf1vyXiVGosAAkjFJK0pOnfk2grhzmn290JCJqhGHumgJcm5m8auS3BylyWAASSCklmcmnThPgiqH/ad4DIAqnoTeAdSf/U5Tq4hrfCcQCkFBrS8Cq6Qpy8RD/ZHMCEdHIDHXXFPwgM3nqyTz5JxeP5oTKo/NPV4KLUUchtLKtsLKtAaQioqEQtwK/WNej+76IOj2779T5zc5E4cYRAEJ28rTLAPkSgLLpLEQ0XHVdzxUhchRP/gSwANA6mX1OW6Asfx8A/9zkb+QkQKJw2uy+Ka8qpT6W2fe0WwPJQ6HHAkBvSe894+l0yvmIAu7f2O/hUwBEESS4Ny3ZPdKTpz5hOgqFBwsA/Qs16eTVqclTDxKFMwCpbeB3BB+KiDZvw+XcA/Cd9LKxh6h9T+wOOBGFHI/mtFG1xy6fJNq6AcAO63/NbumASmUNpiKiDRHfgz+w+u1fUHhBQR3Lq37aGI4A0Eal957+eDpf+rACLgHgr/1VdkaiUHp7BMBTwI/SjvNhnvxpU3g0p7rUHpu7u2j7Wrt11F7KSZuOQ0T/TjS8vlVPKy1fT+837f+ZjkPhxwJAdZMlXY4/dqeaslP83hCFjmjrzecy6sAuz3QSigbeAqCh4smfKJwsHACu6kd1YwGg+hUmtEDxK0MUTgr488550ykoOng0p7qVKrUWXv8ThZjOtJiOQNHBAkB1sy0rr/iVIQqvVJUjAFQ3Hs2pbpbtt3AKAFGISZpv6qK6sQBQ3ZSV6uT5nyjE3Gqn6QgUHSwAVDcNe7TpDES0cb6juI9S3VgAqG5KMMp0BiLaOO373EepbiwAVDc7ZXeYzkBEG6cA3gKgurEAUN20r9pMZyCiTVCa+yjVjQWA6mcpPmJEFGKWsvmqTqobCwDVTRR4cCEKMdHcR6l+LABUN4HKmc5ARJugJGM6AkUHCwDVTUHx4EIUbtxHqW4sAFQ3JSwARKEmvAVA9WMBoCHQKdMJiGhTlGM6AUUHCwDVTykxHYGINkV80wkoOlgAaCi06QBEtEks6VQ3FgCqnygWAKIwE5Z0qh8LANVPCQ8uRGFmcQSA6scCQHUTXl0QhZuAcwCobiwANBQ10wGIaJO4j1LdWABoCKTPdAIi2jgBekxnoOhgAaC6KQgPLkShJt2mE1B0sABQ3SztrzGdgYg2TpRabToDRQcLANXN48GFKNQsy1plOgNFBwsA1c1y9UrTGYho42yf+yjVjwWA6qYd/RqfMiYKsUz6TdMRKDpYAKhuaeBV4VLjRCElgMq9bjoFRQcLANVNTTq5BK090zmIaANEamr7Q6qmY1B0sADQkChI0XQGIno3ERk0nYGihQWAhkZrrgVAFEJKNNcAoCFhAaAh0SKcZUwUQgKsMJ2BooUFgIZERP/ddAYi2hB53nQCihYWABoSS7sPms5ARO/mC35rOgNFCwsADYlb9u7hWgBE4ZNG/nemM1C0KNMBKHq8537tKttxTOcgonVEavbOX8iYjkHRwhEAGjq+FIgoXMRbbjoCRQ8LAA2d+JwISBQiIvir6QwUPSwANGSivQdMZyCityngDtMZKHpYAGjInIxzNYQzAYlCQQDLTv/adAyKHk4CpGHxn/t1P2ynYDoHUdKJ9tc4u0wZYzoHRQ9HAGhYxK89bToDEQGA/6jpBBRNLAA0LErJLaYzEBHgQ91kOgNFEwsADYvl+z8V0aZjECWcSNqr3WY6BUUTCwANi9rjq73K8143nYMoyZTWL6jdj+crumlYWABo2LR2bzCdgSjJROsrTGeg6GIBoGFzBt3vitZ8HpDICPGtDus60ykoulgAaNjU/v81oPza30znIEoicb3H1dZTyqZzUHSxANCI+K57tekMREnk2+pi0xko2lgAaERS/dtcLtr3TecgShTRlfTOf/mN6RgUbSwANCLqwAM98dwHTecgShLxvZuV6uJzuDQiLAA0Yo54pwo4F5AoIGLb6bNNh6DoYwGgEVMfOuFv8Kr/MJ2DKAlEu4+pnT+/3HQOij4WAGoIG/oM0xmIYk8AGzLVdAyKB74NkBrGf/amV+Gktzadgyi2fO8pe9ej9zAdg+KBIwDUMOK7HAUgahYBLM872XQMig+OAFBDec/c9JJKpbcznYMobsR1H3N2++Jk0zkoPjgCQA2lXf8YCJ8IIGoogdi1zLGmY1C8sABQQ6X3PO5R7VUfN52DKE7E925Tk4540XQOihcWAGo4p2IdKdrnIiVEDSCiq3Yqe4LpHBQ/LADUcOojX3pNe1W+I4CoAbRbO1vtdPiA6RwUP5wESE0hIsp/fsEaZTudprMQRZXS3ovWLke/33QOiieOAFBTKKVEtPc5gGsEEw2HiNaq5n3adA6KLxYAaprUbsf+XrzKLaZzEEWR0t731B7H/t10Doov3gKgphJZ4vjPr1ylbKfDdBaiyPC9f9i7Hr296RgUbxwBoKZS6kBPV0ufhnBxAKJ6iNau1Z4/wHQOij8WAGq69J5ffVS75fNN5yAKPQG0756stv7M66ajUPzxFgAFxn3mpmetVHpX0zmIwkp893Zn1y9+znQOSgaOAFBgnJK/n2ifzzMTbYDS3qv2LtbnTeeg5GABoMCoycf12zX8B0T7prMQhYloXVV2dh+lpnDfoMCwAFCg1B5TnoJbncHVAYjWEkBE9KfVToe/YToLJQsLAAXO3v24K8St/dh0DiLjBFDizkztevQS01EoeTgJkIzxnr3pIeWk9zedg8gU8WpXOh/80lTTOSiZOAJAxti72gfAc/9pOgeRCeLWHuDJn0xiASBjlJriW6ni7qL9NaazEAXKd5+xP/jCQaZjULLxFgAZJy/cOMb37BeV5bSZzkLUdL73qqXU9mqXKTXTUSjZOAJAxqkdj1ltQ30QWpdMZyFqJvH9lZZSu/DkT2HAAkChoHaZ8qoF9yMiumo6C1EziO+vtN3UjmqXKYOmsxABLAAUImqXY563vcEPQXTZdBaiRhLfW227qR3VHkf0ms5CtB7nAFDoyDM/3UnbLU/CsnOmsxCNlHjeSjuvdlDvm9JnOgvRO3EEgEJH7fbVv1qVyp7QfsV0FqKREN9faWfd7XnypzBiAaBQUnse/xev1H0rXxtAUSW+C7e45gq1/XH9prMQbQgLAIWWeF5RD67hu4MocsRz4Q92w9K+azoL0cawAFCoidZgCaAoEc+FX+wGhG+8onBjAaDQW1sCulkCKPTEq/HkT5HBAkCRINpnCaBQW3vy7+HJnyKDBYAi4+0SoE1HIfoX4rvwi708+VOksABQpIj2oYtrAJYACgnx1074g/A7SdHCAkCRI76/dqgVvNois9bOT+GVP0UTCwBF0tqrrl6wBJAxoqGLPRDhvBSKJhYAiizxqvBLA6ZjUEL5xV4IH/OnCGMBoEiTWgm6UjQdgxLGL/ZBPL7Rl6KNBYAiT1cGIDW+QJCCocsDEJffN4o+FgCKBb/EKzJqPqmWoKsccaJ4YAGg2PCLPVwoiJpGPBd+me/1ofhgAaD4EIEu8skAajwRDV3qNR2DqKFYAChWxHfhl/jqdWosXezl6BLFDgsAxY7UKrxPSw3jl/o5v4RiiQWAYkmXB3nQphGTaglSK5mOQdQULAAUUwJd6uUqbTRs4nPSH8UbCwDFlmi9blIg0RC9NaGUKL5YACjWxHOhy4OmY1DE+OU+Tvqj2GMBoNjTVc4HoPpJrQSpVUzHIGo6FgBKBF3q5fvaabNE+/DLfMEUJQMLACWCaA2/yPUBaBPW3/cXLiRFycACQIkhXhW6yke6aMN0ZYCv96VEYQGgRNGVAYj2TMegkBGvxnJIicMCQMkiAs1bAfROIlznnxKJBYASR3wXuspHA2mttY/8cYIoJQ8LACWSLhd5v5cgbpWP/FFisQBQQq2f8W06BxkjGrrEpX4puVgAKLFE+9AVPvOdVH6pj++KoERjAaBQ6rr7ulH/dNHR7O3oahHi8VZA0kitAnGrTd/OCy7GnnTf1e1N3xDRMCjTASh5Zt8/f68VVe9LPWLtWRRsXVWqs6ysfFWplAaUtiwopeD4Pv7U2fzJWcp2YLeO4d6QFKLh968J5Or/I90KZceBiMDSGhYgaS1uDrqYgfTkBa/moR8d5elfX3vEzKeaHojoHXjIo6a5eMHFuefb7JNWedbnVyu1y4BSbVXlOLDq/NoJ8Hi7i0xzYwIArEwrrFxrAFsi0/xSH6RWDmRbe/RY8Gy7vt+sNTLa9woivR2in+20ZEGt2POTm6d08UUW1BQsANQwFyyav8WzlnfeG7512CplTazYjgM1sq/YlZka9s8E8TVVsAujoOxUANsiU8Srwh/sCWx7H+y1AWsEd1pFkPV9d7T4r42x9W1tquV7Pz74xO7GJaQkYwGgEZlx9+Vf/ZvG7OVi7VhuwAn/352gqphTCGaqirId2IXR4G4RUyLwB1YF9sz/ix7wuVKDC6UIcr7vjhP9/ARLfe/6Q6b9prEboCThkY6GRETUtHvnnftnF9PetJwttG039Tu0l67hJx3BfU2tbAFWtiWw7VFwghz6B4CrioL5frqp27A8X8aJ9/pWSl1446GnzW3qxih2WACoLjPvmnfCc77892uWs22zT/rv1O57eLgz2If17cJo3gqIGfFq8AeDHTk/rkfwtN3cAvBOlufLluL9faIv5/zi8Bm3BLZhiiwWANqouYt/2faY9Mx/AfYX+h0naySECP7Y5iEX4DdV2al1twIoFkTDH1gd+HK/e3crlBwn0G2ul/U9dxvt3jshkz32mk+ezJdf0AaxANC7fHPx3M88otXVr9upCSOawNQg307VcFSQDQCAlW2FleVTAXHgl/ohtWDf9FcFsGefA9XgOTFDpjUmaPeV9/hywi8+O+NBs2EobFgA6C3TF8879U8a31vppDvD9M3Y26/ius7giwhvBUSfiaF/ALitrPEtN4gHWOslaHPdwe0hZ9902PQrTKehcAjRYZ5MmXrX5ecv9a3ZxVQqlGe7Vs/F0lHBb5e3AiLO0NA/AHy9V+NRK0wF4G15t1bdCfq/f3XYjB+azkJmsQAk2LS75577qG9/e8BJhfNItZ4IlrZ5aDXwbeWtgOgKetb/O03qVqgauv9fr7znVj8A+c5Nh552vuksZAYLQAKdteiyL/9OnKt7U6mc6Sz1OtGq4XQTDQC8FRBFpob+AeDPLnB0OTrflza3NriTo7/4y4NnLDKdhYLFApAg3180b4ffi9z7opPexvjkpCHa0qvhnlFmMvNWQNQI/P7VEG3mTX9n9Gk8oMI9qPYuIhjn1d54fyV1wM++cMrfTcehYETrLEDDIku6nKPLY5Y8pZz9wzCrf1gMPA74TrwVEB1+uR9SDXbW/zvt060wGPLh/43yNXb03cULPzP9UNNRqPkiejagep1792XHTCqNLT1lp6N78gcApfDzYvCTudbTlUGIz9cGh514VaMn/2UaGLAjevIHANvCC+nMIbvfOa96/OL5XzAdh5qLIwAxtXjx3Lb5ov70Nzv93qgN92/Me7waFhm6DQAAyrLX3gpQES5SMSbiQ/d3B/Ka3435Zr/GHYG8v7L5RATbeNXnOkvde/KNhPHEI1kMnbto3onfgNP9dycTm5M/ALxqpVA1uH3RPvxyv8EEtCm62Gf05A8A9/l1vvo3ApRSeDWV3fXPLeNKxyyce7zpPNR48Tk7EGRJl3NEafTSP9vpSY1+K19YnG5XcWKL2d5q59qhMpF5gCIRdGUQujJoNMMjVY2Tq/G4+n8XEWzn1R6757Dpk01HocaJ51kigc6//9K9/q+Sfrg/5QT39hEDxnsu7jewKNC/UrDbRkNZEb7XGyPaq0EXu4Fg3xn1Ll/sFjwf790PBdctfbBif4hPCsQDbwHEwMx75557vZt9LO4nfwBYYTt4zTd8pIdAD/YABlaYo38l2ocu9Ro/+VcBPJ+AQjiQSuWX5vHCMYsunmk6C40cRwAiTKTLOvqu0f/vKSv94bgO+W/Ix3UVl3WY767KScNu6USSfvahIhr+YDfE90wnwWWDgut07Pv320Swg1v77Z2fmf6fpqPQ8PHIFVF//euPC2e8WH7pJSc9xnSWoDm+jz91huPqW6WzsPMdpmMkjwB+sQfimZwW+raPdQPdTnRW/2uUMTV39cTyqol8SiCazF9G0ZBdsuSSDx37YmVNEk/+AODZNu4oh6MASK1ifPJZEulyf2hO/n9zBWsSulT06nRqzN/zY/un3n3x+01noaFjAYiYb98778vXlHNPDjjhfHNfUK4ph2fwSlcGoatF0zESQ1cGoWvmFvv5d98ZlETfBSqlUpklOvfCCYvnHmQ6Cw0NC0CEnH3fZXN+7dvX+7aV4MPNWq9YDnqMTwZ8my4PQFdYAppt7c85PCMuPb7gGZWge/8b4du2tVSl7jlu4WUnms5C9WMBiIjpd8/70a1e9kKx4rPQyIhYFv53IDwFAAB0ZQC6Gp6TU9zocn/oRlq+MygA+/halo3HnMy1UxZd/n3TUag+/OZGwO8fuOTDJ7r5JxI9zrgBlu/jiXYNJ2Q11sq2wMoWTMeIFb/UDwnRsD8AeBrYs8+CtlnK/4UIPgp79I8PPtHM+5ipbiE7dNKG7Jlx3jT9nHMYadvGvFI4JgO+k64U4Rd7YPzh9DhY/6hfyE7+ADC3qHny3xABePKPBhaACGjZf/obee2F70wXAjfVwnkAFrcKf2BNKJ5Rjyrx3bU/Qy+cT5jd5Ibzu2dazvfD+Q9G78ICEBHbKP266QxhVHIc3F4O55W2+B78wTWhu28deiLQ5QH4g2sg2uzLfTbmlpKg4sR/5b/hGAv/BdMZqD4sABHxcUv90HSGsLo8RI8Evsv6k9nAauiQXsmGydqRk9VrS1M4ex0AYG4lxN85wyYAZ5rOQPVhAYiABYvnju1xqxOV65qOEkpv2ik8XQvx2QJrRwP0YDf8wZ7QDmmbJF4N/mD32tX9QnrVv96iimBNAlf9q4equRjrVz7ctXhum+kstHmssSH1rYWX7LPK9ae96vqfeKbqj69oQbYlh3xbq+loobSDX8P/dUbn66zsFKxMHiqVTe67BEQgtTJ0rRSpuRIf7QZ6WQA2qNRfRKVYQkYBO6Wd1dtkrN/mbX3hvMPPftx0Nnq3hB55wmnKb37wGV/U6a/U9D4vuzr/7//ddmy0jzX+LtxQEhHckvewQ9SOy0pBpTKwUlnATkNZ8R6UE9GAW4N2y2uX8g33wM273FYWfMvlwj8b07eqG7737hGcbR2rtE3GWlqC/Oiuo75xl4FotAEsAIadu+iSD3VXvW8/WXU/9VJV3nXS/3cd40bB4qNHG/R+v4pbO6N9AlW2A9gpKNuBshzAtqEsG5HbVUUgWgPag/geRHuAVwv98P7m7NutMMDJfxukfR+9Kzf/9N+WKau4fcq+34PzrdunzHo2gGi0ERE7qsRD1+K5basq1XP/7vrHP1P2Jwxl8LOlrRWZllzTskWaCG7Ie9gtaqMAdVFvjw6okJYc0ev+j0bkLu3r8KuSxve8jOkYoVUpllHqr38lTEsB70/bq7dLWb9+fSB13u++OrO3ifFoA1gAAvS/d/zosGcq/vl/rHi7FLUM62efSqdRGN3e6Gixsa1Xw8JR/FpT403uVijy6n+jBrr74FaHN8E1ayn5cNZ+Yryj5lx75FkPNjgabQSPlE0mCxbY38+/Mufxsp75SNEb34gB0M7xo2N/r3j4BD/NupiU5lebGueGksYPePW/UeJr9KxcM+LPUQB2yzird8ral4393OzvdynFBdCaiEfJJnnkgYsn/q4kP7q/6B7xTMVv6KyhlvYCMvlsIz8yVrb2a1gcoScCKNw0gL27gQpn/m9UpVRGqa+xL8J6f8aq7JtzFuzptJxx7GFTexr64QSABaDhHv7txbvc0qevuqvo7rfK0035+aYyaRRG8TbAxogA12VrmJzh15tG7n/7BQvAmf+b0r+mF16tOeuUjLGV/mTBefDjhezXj/jPGS82ZSMJxSNkg7zw8BUfvaG7NG9Bf2231V7zJ0B1jhsNZfM2wMZM8Gq4l3MBaIR6BfiPPgt8DffGaS3oXbG66dvptC05pJB67Kg268T9Pz7r+aZvMAF4hByhF3936V4LBr0rf9lb23NFACf+9fJtrcjyaYBN6kpV8fkcSxIN33E9gqdtXv1vylBn/4/UKFvhiLb0s0cW1Jf3/vjspwPbcAyxAAzTqw/P/eiv+rx51/dUd3vTwIv67JSD9jGdgW83SrK+h8c6hetd07A8XRMcV04ld6XGOvWt6oHvBb+S4/oiMKXTOW7P/zjjmcADxAC/2UPU/fjVH/zpm4O/+FlvdfflAV7xb0j7mE7YKT6WtCmfRxVdbawANHQHdINr/m+G53roX212ft4WjoWj21K//+K49mO3n/z1ZUbDRAwLQJ1Kj87d6je93lXX9tYO+UvFD8XPLZvPId/OdwNsivI1ftvhYQyv4mgI+NhffYp9A6iWKqZjAADem7b0UW3phXNarK+oA7moUD14VNwMefjHhVuKA/N+1ls9bmnZC9WlpKUUOsaP5hDlZnzQr+FGPhZIdXIF2LvXgssltzdNBD0r10B0uFZ93D1re0e1ZeafnOubow7sis5bpgzgUXEjREQtuveyU28ZrF2wcMBtCddX/G2tHQWkc1wTYJMEuDpbxb6ZUPU3CqnZ/Rr3glf/m1MtVVDsGzAdY4MUgI+3pgYObXFmHv/pWT82nSesWAA24M77Lzvw/gH3+gX91a1C/pp5Tgas0yjPxYN8kSJtxt9cwZGlFBRH1TbL1OS/oUgp4BMtqVf3anWOmnHwrD+azhM2/Ja/w+LFF7zvnpr16zv6a3sOhGxYa1PaRnfASXOy0uacbldxYgtHAWjjDuwGVnPi32a5tRoG1vSZjlG3nAI+1uI8+sF87qizD5nBiYLrsAAAeH7J/NZfDpR/fHt/7aiV3vBe0mNSOptBa2cK//jxAAAOXklEQVSb6RihZ/k+Hurw0carO9qA+YMaV2kO/ddjsKcftUrVdIwh67At+VQhdefeOfnS8Z86s2g6j2mJPhKKiPqfOy/+zt2D7tl/rzZ2vf4gKQW0jR0Fm5OWNosTAmlDVvqCT/Y70Fxdc7O076NvZXekX/i8bcp2P9mSuvL7h886QykV5b/KiCT2SPjdhRef8rti7cKnKn4snqPLtOTQ0haLv0pTCYAfpGs4LJvYrz5twGHdglecyF4DBKrUN4BKSB79G6kPpK3i/nnn3PM/d+Zc01lMSNxR8PyFFx7wRFX/7MFBb5tY1T6l0DFuNCwrcf+kQ5b2PSztFL7ehQAA1xU1LvM59F8P8TV6Vq1BpC//N2CPrNO9dw5f/+7hZ99iOkuQEnO26Fp80c4vFP1f/a7kfdCN2Zd3vWxrHvlCi+kYkbCPruKaDg73Jt0bnuDgAQfCof+6lAcGUR4sm47RFA6A/2hJ/XlnWx3ddeSZz5nOE4TYF4CLFl405i+eXP/bQffgAT96E/yGQlkWOsaOguIowOYJ8KNMDQfxVkCifapH8AZf9lMXLYK+FWsgEtMrqHVyCjiwJfXoDhnnC+d9ZtbrpvM0U2yPfl1LupxiX+ul9xTdU95wdWJmx+VaW5Ar5E3HiISU5+OhDg0+GZhMFw5qXM9Z/3UrDxRRHiyZjhGYMbbSnyqkb35fOn3CjENmRO+RhzrEsgDMvv2Cs/5Q9L7zj5okbok8pRQ6xo2CsnhWq8dufhU3dPJnlTTPuMCxRQfgaFldRGv0ruyO/dX/hmyTtmr7Z+35lx151izTWRotVt/+b95+0QmPlv1Ln654HaazmJRtySPfxrkA9RAA5zhVHJtnCUgKTwP79SqUHL5Js17F/kFUi/G891+vnbP2wH651NnnHz77StNZGiUWBeDixRd87IkSfnJf0X1vhBbwa551owAWRwHqorTGHa0etnVisTvQZhzfI/gT7/vXTfsavTGc+T8cCsDkfOq1PTJywv8cfvYS03lGKtJHvAsWXrD9c1Vc/0DRm1xN4NDUpmTyWbS0F0zHiIwO18XvR0d8h6DN+nlRcKGf5r/zEBR7B1Atx+O5/0ZJK+CTLelnPlhQR8/51Jy/ms4zXJHcD35+//dHP9yXuv63JffTfTGf2T8SbWM64aQ4zFmv/5QqLm3nqElc/dUVHFV0AI6M1c1zPfSv7jEdI7TabUs+3eI8uG9b6ovHfOKMFabzDFWkTp6LF8/N/MGtzb1zwP2v173kzOwfLiedQtvoRE+HGBoBvpOq4ch8pHYLqkNZgI/1KpRtFuKh6F/TC6/mmo4ReuNtpQ9uS9+2e1aOj9I7BiJzpPvmwovO++2ge97fq3xuZyhaO9qQzvFHVi+lfdzaqvE+nidi5XPdghe51O+QVMsVFHsHTMeIlPVPDHQeceacLqW06TybE/oC8K2Fl5z4h2L1omcqfrvpLFFk2WsXBwLfgFe3Fs/Dg6MErE3x8N/9GrfwX3NIRAR9q3qgfd90lEjaNWMPHpC3z+k6/Mx5prNsSmjPCuct+tFhTxbdq/5Y8ieazhJ1udYccgW+KGgodvJquHlUaHcPqtNtZY1v1TIhPtKFU6l/EJWEP/bXCHtkne79c84p/3347JtNZ9mQ0O0WXYt+OOnPZXX97wfdD3imw8SEwtoJgTYnBA7JEVLF/3BSYGT92QW+OGhznf8h8r21E//4YFVjWAr4SM5Z9pF86phvHzbrIdN53ik0BeDaxXO3erRc+dXdg+5+VX7xGs5JOWgb02k6RqSIALOdKr7KtYIjZ7UIPtlrw7M5V3ioOPGvOdJr3zHw3L4p/4hph5/zD9N5gBAUgK4l81tX9pauvH/QO6bb1zzSNlG+vRXZfM50jGjRgqtzNeyb4VczKqoA/rNHoY8z/oesWiyj2D9oOkastduWfLzVvmuPlH/c1MPOMfqMpbEC0LWkK7umt3X+74ruCcv5SF8glFJoH9sJi1dFQ2L7Pu4o+HgPVwoMPQ3gkG7B65zxP2Ta89G3uieR6/2bMMGx/ANaUj8f3TE4revALiMrLQV+ROta0uX09OQveKjsT3vV1dxLA8ZbAcOT8Tzc3akxhk9ThNoxPYJnuczvsHDo34wJKeUdmE/dMimPrwW9hkBgR7MFC7rSj2dafnTfoHfSazzxG5UvtCDbylcGD1Wr5+G+TkErO0AondGn8YDi437DUR4sozzAoX+T3pOy3QNbnF/uPe4906bsOyWQRzCafii78J7rW14uvnnpI2X/hNdcnWr29qgOSqFtTAccvg1tyMa5Lu7pBBxOCQiVb/Vr3MZn/YfFd330renmy35CYtu05R3Ykvr17qn01OMOmdHfzG01rQBcf8+V4x4rDV7zUMk77A2X9/jDxnYctI/p4AJBw/Aev4aFnQrsAOFw/oCPGyRrfkZzBIkI+lf3wvf40HXYbJmy/P/f3v3GyFGXcQD//n4zu7O3t7e71zuB1Iqa2hfUpFohJtfqC4I2RjD2j1SPQrUU+k5NaGMxMebeFNLzKKaGpqQGbKinxQo9WkADSOEAT9QXrSRIAVNabc/mbv/N7OzOzO+PL1q1Ten1bmeuc7v7fJJ7cZO93efFzjwzz++559fXYT6zKME2bfnalonZ+IzIz5mfPzv08b8FevcLTrDirNB0jZzDaMfAxi0QAQ7lqRIQt+0ViSdAyb9R1VIFXs2LOwwyhW6DqeVpc/SjKf7tbbdu+SDK947svNn53ODCYzW29yU3WGbTDn1NozPfBasjFXcYTel6EeCZbsCgb3ssttsaT6gkFbEa5NU8VEuzWmEmEcpwrvvSxivdgbF+V//mU1G8Z+hT5we/+tn8M8na3tddeUtFKjoVmwxj7NyUQJNWaRpxvfQxkmNUCbjKflTRGAH1EjdKCnl+2h8t/DebNGd6acp8Q9WtOw6t//7JMO/VcMLeNDzUW7PU8Guu/JJNib+pGaaBbG83GD1KNeRaEWAkD9DAwKvjuyWFI5wa/hpF6/6tIc2ZWpoynn9b1L5z/I6BhnoEZn7FHxjg6z6dfvAvnrhvUmhqI28RSctCZl427jCaVloIjOQUrqP1gFl1b0lhjJJ/KHaxgqBO6/6tIsOZXJg0Hn2/Vtt8YsPMBgrN6Gp199ODa4658vETgaLOsRZE8wHCSQqJ/VmJT9HEwMjVNbCmqHGSJvyFUrOrqDlu3GGQWdBrsMpHTGPjaP/WA9P9m2ldqRY8uaNjsfIPHq3LFbQ7dGvr6s4ikaInrEZxKbEjJXBLB60HROWU1PhGmcOluRWh+HUPTpGa/lrdJ5P8lXdcb3XlnoHClV57xRuAdfsfWP62YM+dDBTVh9sBY8j25GHS1sGN0xobuI/7uugmIKw3PY1NrgFJ+1eEIgIBe7JETX9tIs/hdlrG6qPfvP/3U71uyivUhgODPz5Sxygl/zaiNZxCGVJSradhjOFxbWFDSdFwtRB2OwobawlK/iEpqeAUKPm3k5JC+kxN/G758PbBqV532QpA/4HB4ZeqQb+i70xbMkwT2Z48GKf17DB6RYBfZjXmU1/AtEkNbCwq/NWkpaiwtNaoTJYgA+r4b1eLLH74j8bClVi79pKnug+tANz91ODwCw4l/3YmhYBTLAP01BDKhJnAV2wDT7oq7lCawj+ExheKoOQfBQ3YhTIl/zb3rqdu6xPvvwh96YC+Sw5s+u3gnqft4B667BMASKSSyORzNG0tJA3g88rHnhyjyYGXsdtR2BUkoA3qnQhLa8AplhF4ftyhkDliSco4+Idv3b/qwmMXnWnbDj20/rBDyZ/8X1D3US1T53BYDMCfeRLLigxjHp1hFypKjZUFjUeURck/ItWyTcmfXORYXa5ctX/71guP/e9Z5NGXh3r3nA5On6Ate8mHsNId6Mxl4g6jNWiN5crHzm7e9sNsH3MUfioS0JwSf1SqZRueO6N5MKRNdDGmbuowFv9m7dZ3gAsqAG8V9UFK/uRyPLcGt+zEHUZrYAyvGxb6igyH6+1ZDTgeaKwoAA8ri5J/hNyyQ8mfXJatNffAnvrv7wwAhl4cWvzIGf8t2sWPXAltIRy9a0WAHV3Akja4/a5pYHNZYZQlQY0l0XIrDurVWtxhkDnOAPDlHL9536ofHuEA8IHNdlHyJ9PhuXVUy3bcYbSUf5sJrHNNrC1qnJWtWRFQAB52FPpKHKPcouQfsWrZpuRPpkUCcAXfAQBM6wG+7Ncp711P0ug3Mm1Wh4V0Pht+P2lyEaYUPqcCPJBjmN8C/y6gAeyqKjzmm/BpoE/kNAC3ZMOrUdmfTF+WM3VjKpUxsjd99a4RW6yJOyDSXKSQkELAStHTXKQYwxluYp/P8XJN4bMJjZ4mHMbkA3ioovG9KsebLAlJ6/zR0xpOsQKfdvYjM+RpsBstXjBPC3573MGQ5hTUfVQKZWTm5cDpJiBajOHvRgJrqsB1ysedlsZdaT717O454HgA/KSq8Cec7+ynuuKsUOdHdgs/iDsU0qTqTN/G/ynkkrgDIc1L+AGciRKUpEl3s4IB40YSQ8LC0qKBe0sKR/251SfgaGCnrXBzAVjtJjDGqbN/NimlYE+UKPmTUMYDdYM5LvQ1cQdCmpsQApXJIjLdOdpFcBYpg2MMFsbqgOlKLNISX7c0+mOoDJQ08IuqwrMBwzhPnFsGMqe5vzhpmAwk7GIZijbrIiFNSj2PfWbfg/JfQtHtOgmPMXTlu5BI0Rz3q0opzFMCNzCNL1rArR0c+Ygz8bjUOFTXeNUH3tMGHMOg3o+rLKh7sEs27c9BItFjMMU+tnebrtH3iUQo3dWJVCYddxhtS2sgoSS6tEIvNBZwjYUmwycMoIcDnRzo5cA1BoPSwITSOCuBktSwAbwnzv2cAkNBM1QZh6YO/ljVHReuXY07DNJCLMbwH+58mWwdrRDTAAAAAElFTkSuQmCC;" vertex="1" parent="1">
          <mxGeometry x="250" y="60" width="70" height="70" as="geometry" />
        </mxCell>
        <mxCell id="8nGL6lLDQIwl6OMTAhl0-3" value="ZooKeeper-1" style="shape=image;imageAspect=0;aspect=fixed;verticalLabelPosition=bottom;verticalAlign=top;image=data:image/png,iVBORw0KGgoAAAANSUhEUgAAAgAAAAIACAYAAAD0eNT6AAAABHNCSVQICAgIfAhkiAAAAAlwSFlzAAAOxAAADsQBlSsOGwAAABl0RVh0U29mdHdhcmUAd3d3Lmlua3NjYXBlLm9yZ5vuPBoAACAASURBVHic7N1noB1VvTbwZ83MrufsU1IJAQGVIiCIBAnFK3gVEVAEJSggqBcpCQmkAILoPd6rooCUkNBtKKDBSwsJ3YggAV9AqooKUgIh7fRdZ2b93w9JACVln3P2njXl+X2515DseXKyZ+aZNWvWKBBRwy2YeXEuj+WTFDDJsvROUN5WtuWPt5XbYVt+QSk/Z1k6bVuubSltiRJlKQ1L+aohAUSh5udR03mIlYZtW7DSgJMS2I5AWQLHEUAJfN+GiILv2vB8C75nQbsaSmpIYRAp1YfGhAK02KLFgoISX1ta65QvYlW1tiu+tgd8cXq0Tq3QYr+mlPqLr+3HS20vPT6l6+ZagyIQ0TqN2q+JEmnh2ae/R7npQy3L299R7m5ppzIx5ZQLKafqKKUDzVJxC3BRgJO1kWvz1p7gG8D3bZRLGfgVDVv6kVHdgR44RCy4ftZ1vcyA62Vf9XXqGV/sh1K2vfigCy54I8AoRLHCAkBUp7tnzhzlWdaxttIHZ5zS7pnU4Ph0quyYzFRxC/DsDuTbNNI5P5BturUUyoMpKLcfObUGUI0pGsNR8/Jupday3PNzf/J86650avBXn/zhNX3GAhFFCAsA0UbcMqdrXNotnpJOVw/JpAZ3zmX6CsrgyW49Xzsoe2ORaXOQK7hGs1TLGZQHgBzehK2qRrMAgBYLlVqhv1JtfU4jc1vW86498NJLe03nIgojFgCid7h1+nkHZTKVE7Op/gNas91jgx7G3xTXz6CqR6N1LOCkwpMLALRvYaAvi7S3AilVNB3nLVosVKrtq2pu/hHx1M8PumTuraYzEYUFCwAl3h0zzvpyJlOd1pLp/nAmXUyZzvPvPJ1BBWPRNtaHZZkfgdgULQoD3Tlk/ddDMSLw7ypuS7VUaf+j6+cuP+ziC282nYfIJBYASqRbT//m5/Pp/jmt2e5Jpu/jb4zWNga9LdA2XuA44bri3xzPc1DssdAiy4AQjaK8U83NucXyqMdKuv38z1383cWm8xAFjQWAEuPWM76xbT5dPj+X6v9sLtOXN51nU4rVUciMyiOb90xHGZFqOYPaQBk5tdJ0lE0qVduK5Vr7HSrtnv2p713xmuk8REFgAaBYE4i64/RzT8xn+s5sy6/a3rKCmSk/XL52UMYEdIzzjM6ub7SBnjwy7muwlNlJi5ujtYVSbdQ/y27+kkMuvPRy03mImokFgGJpydSu1lKu/5JCrvu4XLo/azpPPUq1TmTH5JHOhLukDFetmobbW0LGWm06Sl3KtbZSsTz6l95AYeZnrukqmc5D1GgsABQri6eftZXKunPbsis/m06VbdN56iIKg94EdEyQWF31b4iIQv+aDFr0K5H5u3p+RveXxjxUqrT/1xGXf/dF03mIGoUFgGLhlqnnfaA13//z9tY3J1mWF5nvtacz8DLj0NoR7qHxRisO5GCXl8NRFdNR6qbFkd7BcQ+XkPvqERdeyCJAkReZAyXRhiyadc4OKXvgJ+2tK/Zt2Dr6Aam4BTgdbcjm4znkvznVagZeXy8yKloL92ntSG9x/GMlZI9jEaAoi9QBk2i928/64ZY5/cYN7a3LPxalK/71irXRaB2fht2g9fqjyvMclNZUkbdWmY4yZFps6S+OfVjn81/4VNdF4X7MgWgDInfgpGRb0HVUum1wq6va8itOSDkVy3Se4Risjkf7RAthWFY4DERb6F9toUUtMx1lWFwv6/cMjr9p2Y7Fr5188jXJupdDkcYCQJGxcObZp7e3LP9BLj0YiVn9GzJYm4COLRGZCXCBEYW+1Wm04BXTSYatUiuU1gxsOetzl51/teksRPVgAaDQ+7/p35zckV9zc1vLyq1MZxmJQXciOrZM5v3+evWuzKJVvWw6xvCJQl957Mv9lYmHHHnpt/5iOg7RprAAUGhJV5d192D/z0e1Ljs2ivf532nA3RKdW4ZzSdxQEYXe1Wm0RngkAAA8LyNrBre6sTT55ROmTLmZrY9CKdIHVYqv38w475CxheU35TM9baazjNRAbQt0TjSdIkJEoW91Ci141XSSEStWOvsGylt8+TOXfG+h6SxE/44FgEJl8fS5GSvz0p2dhWWfsEL6EpmhGKhtgc4tFe/5D5Uo9K5y0Kqivyy/1hZ6ihPvHtO382cnXXMyJwlSaLAAUGj85rSuSaMKy+4r5Lo7TGdphFJ1NAoTU1Dcy4ZHFPpXAnlruekkDVGsdPavGtzu00fNPe8R01mIABYAComFM79x2djCy9NtpxaL72TFLSA3tg12ird/R8L3bVTXDCIdscWCNsbXKVndt811h11ywUmmsxDF4mBL0bXwlIsnZtpe+n1n6xvvNZ2lUVw/C7tzdGxf6hO0aiUN3bcSKSs6ywZvTl9p/CtVf7vJh1541pums1ByRXIhFYqHW0//5uc7xjz9UpxO/los6PwYnvwbKJOtQbdMgNaO6SgN055fsU1b9rlXbj/9zKNMZ6Hk4ggAGXHX7DOuHVVYdqJlRX+i3zsN6q3RMZ7zvJqhv7sFeT9eS++LWFjTt811n774R183nYWShwWAAvXTr3RlJ45bs6Sz9fXJprM02mBtPDomcpdqpv4VDvJWNJcM3pS+4hZ/8f3t9vrURWcWTWeh5ODRigKzaNY5O7RkV/6xJdvTbjpLo1XcAlrGF6DseI1ohI3v26isHkDG6jcdpeEGy6N6uqUw6fM/uOQl01koGTgHgAKx8IxvHNDRsuzZOJ78tViwCu08+QfAtn1YraMgMTx0tea6O7dIrfrr4pnfOMh0FkqG+O1FFDqLZp954pj2lx9Ip4pp01maoaQnIF/wTMdIjFxLBSW1jekYTZFOlVKj2v9596Izzp5mOgvFn206AMXb4tmzLxrb9vL5dsTX8t+YUnU02idYvJkWsEzeQ3Ewj5SK3y1zS2mVz/Ye8rk9D87fuHTp/abzUHxxBICa5q45s64a0/bKbBWDJX03xNcOMmMyXObXAAUg25mFlpTpKE2hlMa4tlfOWjxn9k9MZ6H4YgGgprhnzukLxhReOTmuJ38AqGALZLLx/fuFXTpdQ9ne2nSM5lGCsYWXv3rXmdNvNx2F4okDl9Rw95457YHOwvKPm87RTKVaBwoTs9yBTBOFwZVVZK1u00maas3AVksOvnBurPcpCh5HAKih7jlz+u/jfvLXYiHd0cqTfxgogV1oh0i8D2WjC8sOvHvO6UtM56B4ifdeQ4G676zpvx1VeP2jpnM0W9HbAtkWzvoPi1y+jCJifCtgndFtrx1wz5nT7zOdg+KDBYAa4r6zTruzo/X1A03naDbPz6BtHCf9hU1htAdPt5qO0XSjCq9/4t6zpt9pOgfFAwsAjdi9Z51xfUfrG4eazhGEijUOtsMCEDa27aOWGW86RiA6W944dNGcmb8wnYOijwWARmTRrNnzOlpf/bLpHEGouAW0j+OLfsKq0FFERUaZjtF8SjC27ZXj7pwz5xLTUSjaWABo2BbNmjVrbPvL0xIzGS7XwYl/IaYAINdhOkYgFICxrS+fsWjmmTNNZ6Ho4vGMhuX2M849dHzHiwtty03Ed6hU60TbxIzpGFSH/pVAXr1pOkYgtNiyauC9nznsoh8uMp2FoocjADRki6ads8OYwqu3JuXkDwBOIf4TzOIi1ZpFUmZpWMpXnfllt90x8+xdTGeh6GEBoCG54dTzOwsdbz6RTpXiuQbrBhRrY5Bv473/qMjlKyjpiaZjBCbtlJ323Mqlt57RlYz7H9QwLAA0JOPaX/ljLtOXnMthUUi1ZU2noCHKtjuAJGaACvlsX6GQWfG46RwULSwAVLd75pxxc0d+5ftN5wjSYG00X/UbQZlsFUWZYDpGoNpbVrzvrjNPv9F0DooOFgCqy6LZs0/pLLz2BdM5gpYq5ExHoGFKt6VNRwjc6NZlX1o8Z9bXTeegaEjOGBkN223Tu3Ye1/m3Z1JOxTadJUil2ii0TUzeSSROkvREwHqul/F71my786Hzz/+b6SwUbhwBoE1a0tXltLcu+33STv4AYLW0mI5AI2Tn8qYjBC7lVO2W9tUPS1cXj++0SfyC0CbVij23t+a6R5vOEbSy247WDs78j7qWQgllP3FfX7Rk14y9t9h7i+kcFG4sALRRd54+57jO1mWHmM5hgk61m45AjZJN5r9lZ+trhy8+/cyjTeeg8OIcANqgW8/o6hhbeGl5JjWYuGfgXD+L7NhOKDspy8nEm4hCdVUvHFU2HSVwlVprtc/bcsJhP/hBj+ksFD4cAaANakmv/l0ST/4AUJXRPPnHiFKCirWF6RhGZNODmYwU7zGdg8KJBYDeZdGsOTM6Wt/Y3XQOE0Qs5Efx5B83+YKfqIWB3qm95fW9Fs0+6xTTOSh8krlH0EYtnt7VVuh4aWU2NZjIN98Uq2PRvlXiHnhIhP4VQN5K1iOB61Xdlmp/7/vGHXJ5V7/pLBQeHAGgf2FnVy9O6skfAKx8Iu96JILKJfexzkyqmLGzq281nYPChQWA3nLbzG9/pqPlzf1M5zCl5uXQOoqP/sVVoVCCK8lbF2C9jtY3P377GeceajoHhQcLAAEApKvL6swt+6VladNRjKliFO+JxZkS1KxxplMYYymNjvyKX5jOQeHBAkAAgEUDA5fns71tpnOYIgDynaZTULNlWpI9wTOf7em8a9asH5nOQeHACx7CLeecM3p86tU3007ZMZ3FlFKtE20TEzv1IVGKK2rIWN2mYxjjelmvf2D8+IMvuSS5PwQCwBEAApD3B29L8skfAHQquRPEksazk7ky4Hopp+Iox/2V6RxkHgtAwt0641t7dubf3N90DpNEFFo7kjv3IWmyrcldE2C9jtYVn7j99HN3M52DzGIBSLjWbPeNluWbjmFUyR0FJ80CkBSZbA0VPcp0DKMs5at8pv8G0znILBaABLt99rmfbG95cwfTOUyTVHIfDUsqz0n2bQAAaG9ZvuudM8490HQOMocFIMFaU93XKZXsWdEQhRYO/ydOvs1Fwr/5UEqQa1lzrekcZA4LQEItnHn2Zwr5le8xncO0ktuOVDrZt0CSKJ12UdWjTccwrpBb9b47Z37jE6ZzkBksAAmVS/XPT/Y0qLW0zdn/SeXZiV324i0KQC7de4XpHGQGC0AC3T7jvIPbWlZtbTpHGGQKrEFJleZrHwAAhfyq7W+Zfs7HTOeg4LEAJFBLrvtSpXjfu+blkGvxTMcgQ/ItFfjCxZ+UEhRyffNM56DgsQAkzJ1nnPeBtvzKHU3nCIOa5hBwoilBFZwHAABt+ZW73nX6WTwuJAwLQMI4zsBVvPpfy0qnTUcg01I50wlCwbI0rHRlrukcFCwWgARZcPYP2tvzqxK96t96AiDfztn/SZdrrSX+ccD1CrnV/7lkaler6RwUnESv/540tV7r9J6WCSx9AHykkPK5ABAB7kAONlzTMcLA7pfMqQAuNB2EgsECkCC9gxMP7RucaDpGeKwwHYAodA4DC0Bi8BmohLjiSzfuJpY8bToHEYWb1uoD02865q+mc1DzcTg4IbQlJ5nOQEThZ1n6BNMZKBgsAAlw8VELcgo4xnQOIoqEr3QdsIS3hxOABSABsunaEQA6TecgoihQW4ydsPzTplNQ87EAJICGdbTpDEQUIZY+znQEaj5OAoy5S77y0450Lf0mFLjmKRHVq1Sy/HFn/uL4oukg1DwcAYi5jJs6nCd/IhqifFacg02HoOZiAYg5UWqK6QxEFD025AumM1Bz8RZAjF3ylZ92pNz0CgVw0XsiGqqBai01ftbNU8qmg1BzcAQgxlJe5iCe/IlomArZTPWTpkNQ87AAxJgS4aM8RDRsIupTpjNQ87AAxJRAFICDTOcgoihTvIiIMRaAmLrimBt3B7Cl6RxEFGnbzT36V+8zHYKagwUgppTi8D8RjZztaN4GiCkWgJgSqI+bzkBE0ScAC0BMsQDE0IKjFtgA9jadg4iiT0H+o6uri+eKGOI/agytzFR3B1AwnYOIYqFj7Is77Wg6BDUeC0AMWWLvZzoDEcWI7+9rOgI1HgtADAmEBYCIGsfCPqYjUOOxAMSQgDsrETWQCEcAYojvAoiZ645aMKqadteYzkFEsSI+pGPGDcf1mw5CjcMRgJipptzdTWcgothRlrZ2MR2CGosFIG4s7GY6AhHFj6Xkg6YzUGOxAMQPd1IiajitZFfTGaixWADiRjgCQESNZ8HixUXMsADEzwdMByCi+BFwBCBuWABiZO5RC8YCaDWdg4hiacwlX/lph+kQ1DgsADGSSrnbmc5ARPGVrqW3NZ2BGocFIEZ8S21rOgMRxZcA25jOQI3DAhAjSvS2pjMQUXwpC9uazkCNwwIQI0qpbU1nIKJY4whAjLAAxIgItjSdgYhiTFgA4oQFIEYUMMZ0BiKKNR5jYoQFIEaEOycRNddo0wGocVgA4oU7JxE1kfAYEyMsADHR1dVlAeg0nYOI4kyNFghfIx8TLAAxsdXzO3cAsE3nIKJYS11+7A0F0yGoMVgAYqJq+y2mMxBRIrSZDkCNwQIQF46XMR2BiOLPEZU2nYEagwUgJmzulEQUAJ/HmthgAYgJ7pREFASxfY42xgQLQEyIbXGnJKKm42hjfPBxjhB6/OqTUmnfbpWU3QHPa4Flt/i+3uTM2+XLJmz7+vKtTw0qIxEl08QJr105YavlL2/q99i2NQDtF+E4ReX6vTXbH5x08jVuMAmpXiwABi1YcJS9w5rRe4qyJongA0phBwh2BPAe8N+GiOJDALwKhReUVi+IJX+Fj//397Grnpwy5WbfdLik4kkmYE9fceqOGtanBfJxpfAfANpNZyIiMqRPBL9XFh4A/MV7nHL1300HShIWgAA8c8WpnRo4ShSOB9S+4M+diOhdFPCEKPzCEn3T7qdetdJ0nrjjiaiJnrxq+u6WeN8QWEcCwokzRER1UTVA/s+2rPN3O3nes6bTxBULQBM8deUpe4iyz4HIF8CfMRHRSNyvRb6159QrHzUdJG54cmqgJ+dN20Y5cikEnzOdhYgoTkRwi7a9mZNOvuZV01niggWgAR6/+qSULc5UCL4LoNV0HiKimCoBuLDVtc/ffsblVdNhoo4FYISevGr67kr8mwB8wHQWIqJEUHheazlmz6lXPmM6SpRxJcARePKqqccr8R8BT/5ERMER7GIr9difrpp6uukoUcYRgGH464+/VihVs9cqhaNNZyEiSjZ1Y1rLybtMu2LQdJKoYQEYosfmTRudseVOASabzkJERACAxy3oQ7l2wNCwAAzBn648ZVuIdQ8UdjCdhYiI/sVLWuNTe0674h+mg0QFC0Cdnpo3bRex5T4AE0xnISKiDXpD+eqgD502/3nTQaKABaAOz86furVr4Q8K2Np0FiIi2qQ3AL3fHqde9bLpIGHHpwA24/GrTxrjWbiPJ38iokjYErDue/ba08ebDhJ2LACb8Pz8qa2Odu4GsKPpLEREVLf3e5678Onr57SYDhJmLACbULNxpQB7ms5BRERDtpcUi9eZDhFmLAAb8dQVp54EwXGmcxAR0fAI1BefunLa10znCCtOAtyAp688ZVcN6zEAedNZiIho+BRQ0cqe/OFTLn/adJaw4QjAv3n86pNSGtZN4MmfiCjyBMgq8a9f0tXlmM4SNiwA/8bWzkwAu5rOQUREDbNb5xYrZpgOETa8BfAOz86furVn4c/gK32JiOJmQEF/4EOnXvW66SBhwRGAd/AtuQQ8+RMRxVFBYF1sOkSYcARgnaeuPGUPgfUE+DMhIootLTJpz6lXPmE6RxhwBGAdgfUt8ORPRBRrlmWdbTpDWPCEB+CJ+VM/YFl4DixERERxp5WvduMLg3jCAwDYlpwD/iyIiJLAEhtnmg4RBokfAXj86pPabe0sB5AznYWIiJpPARWppCfsMfPSXtNZTEr8Va/j20eDJ38iosQQICu52udN5zAt8QVAoL5sOgMREQVLCRJ/7E/0LYCnrz1tO+3pF5HwnwMRUQIJoN+7x6lXvWw6iCmJHgHQrn8IePInIkoiJUodbDqESYkuAErhQNMZiIjIDCUq0eeAxBYAESiB+pjpHEREZMwBIskdBU5sAXjqiqm7AxhjOgcRERkz7tlrTkvs218TWwCg1CTTEYiIyCzt+4k9FyS3AEB2NJ2AiIjM0paV2HNBYguAAIn9RyciorVUgi8GE1sAFAsAERFJcs8FiSwAIlBQ2M50DiIiMk29z3QCUxJZAJ645qQcgJTpHEREZJqkl/z0K1nTKUxIZAHIWLmC6QxERBQO7QOFRJ4TElkAajU3kf/YRET0bo7jJfKc4JgOYEgKwEumQ4SJUiqTymYnms5BRM3lVqvLROua6Rxh4orKmM5gQmKXQKR/5S69cj+rY9zDpnMQUXNZ2t9b7TLlj6ZzkHmJvAVAG+CovOkIRBQA7XNfJwAsALSOhs2DAlESiMqZjkDhwAJAa/nCgwJRAvgpm/s6AWABoHWU5fCgQJQE2ue+TgBYAGg9m/cFiZJAi2YBIAAsAPQ2roxIlAh2Ih95o3djASAAgFIOvwtESaCEj38TABYAIiKiRGIBoLW0z+8CUQLYXACO1uFBn4iIKIFYAAgAvwhESeFr7u60Fr8IBADQojgsSESUICwAtA4LAFEiKM19nQCwANA6lsWvAlEy8DFAWotHfSIiogRiASAAgBbhd4EoAZS2OQJAAFgAiIiIEokFgAAAls37gkSJoDjaR2vxi0BElCA86NN6/C4QAEBr8UxnIKIA2Mo1HYHCgQWAAACWQsV0BiJqPt/T3NcJAAsAreOLqprOQEQBsFj2aS0WAFpLCw8KRAkgwhEAWosFgAAAIj4PCkQJYFvpsukMFA4sAAQAsGHxoECUALalWPYJAAsArSPK40GBKAk0WPYJAAsAracUDwpESWBzX6e1WAAIACBl3gIgSgRtcbSPALAA0DqSqfKgQJQElseFgAgACwCtIwIeFIiSwLK5rxMAFgBaRyAuIKZjEFGzVVkAaC0WAAIAaDtdgbAAEMWfqplOQOHAAkAAgDxQ4vmfKAGsatF0BAoHFgBaa2B5kbcAiOJOgJ25DgCtpUwHoPDwnv+VVlaK3wmiuBLR9s5fsE3HoHDgCAC9TcM3HYGImkm4j9NbWADoLUrBM52BiJpHwH2c3sYCQG8R0Tw4EMWZCB8BpLewANBblICPBxHFmnAfp7ewANBbBCwARHGmoKqmM1B4sADQ20Tz4EAUZ6L5zg96CwsAvUXA54OJYo4FgN7imA5AjSELFtiVLXsmekpXWjtG96pdpgxnOJ8rhBHFmAhKQ/0zA3+4clzK9idZsLaCFt+3rX9mS5Un1YEze5uRkYLDAhBh8sjFOVelj9VQJ9Swai8LyKQB1PpXVapL5z8pCrd4cH/ZOvmMFfV9oPQ1NzERGdZTz2+Sx69OuTXveLHwXxC9D0RBIIACLK1Ry6ar1aXzb4Po72X2nf5ss0NTc/AWQERVHr1q+5rKPC1Q1ypgfwCZd/znLIB9leCilKT+WVs6/yJ56IrOzX6o1t3NyktEIaBk9eZ+S/XReYfXXP8vonAdBPts5LdlABwNpR6vPjrv8MaGpKCwAESQPH51uxL/HgDb1/HbcwLMrtnyfGXpFZ/d5Odamz84EFF0iahVG/1vS+a3VpfO/wVE3QbI++r7RJWGqBsrD1+xY6MyUnBYACLIrbnfA7DdkP6QwgQFua22dP5FsmDBBtcCt0Xqu1VARNFk4c0N/XJ56ZXb1jJ4FMBxw/jUvLLl0pEFIxNYACJm8NFLx4vC14f5x5UAs2tbr1ogi+dm3vVfZcMHByKKBxG88e+/Vn3k8p0s6IegsMsIPvrg6qNX7DaCP08GsABEjCPpYwGVHuHHHFnrsO+Qpy9seecvivivj/BziSjEUspa9s7/XXvkyj2Ush4EsNVIP1uJHD/Sz6BgsQBEjIKc0KAPOsgt5Re+cyRAV0vLNvVHiCjiUs7y9f9v5Q9z3wel7xZgXCM+WoBjN3Z7kcKJBSBCyo9dvh2Ahg2zCXBgrdP5mUiXBQCehVWANOrjiShsPOkFAHls3mhl2YsbdfJfZwv3Pas/1MDPoyZjAYgQS+z9Gv+p8sXao2P/BwByZbtXtG78JogoHHL9PSJdlqvVTQB2aPTHa60/2ujPpOZhAYgQgezfpI8+t7L0is+qA6cNQoRDAERxJKLVdl+t1B4b+00BPtmMTSioJlykULNwJcAIUcDezfto+XF16bwfQ/satsP7eEQxI9CoLp3/OATNG6ZX2Ktpn00Np0wHoPqIdFm1R8cOAMg3czt2vgMqnW3mJojIAPFc+INrmr0ZnZZqq9p3Fl8sFgG8BRARlUfGbI0mn/wBQIRzAIhiKZh926oh9f4gNkQjxwIQEcqy6ln2d+TED2QzRBSwoMq91fjJhdQcLAARYUGGtvTvMPEpAKJ4Eh1MuRettg5kQzRiLAARIQpbBLMhPgRAFEsBjQCooI5VNGIsABGhtIwPZEO8BUAUS6KDKvcqmGMVjRgLQERIUDsVbwEQxVNw5Z4FICJYACJCKYwOYjt8CoAopoLbt0cFtSEaGRaAiBBBIagNcR4AUfwENQkQQMvmfwuFAQtAVCi0BrWpAA8URBSEYIt9MBcrNGIsANERWAHgRECieAm41Ad3rKIRYQGIDGn6KoBv8VkAiGIl2Lk9wR2raERYACJDpYLaEhcDIoqZQEu98GViEcECEB2BvblReAuAKFaCfbpH8S2zEcECEBkBtmpOAiSKlYDnAFgiXTy3RAD/kSJDBVcAuBYAUbwEPar3xATeBogAFoDoCOysLJwESBQvvhfk1gR7nhToBml4WACiww1uU8J5AEQxEuzEXnGVUlxNLAJYAKJCoRbo9vgkAFEsrJ0AGOT5WAV7rKJhYwGICJEgRwDAtQCI4iLwfVlYACKCBSAiVKC3AADRvIVHFAuB78scAYgKFoDoCLYAjFsU5AAAIABJREFUcA4AUSwE/24PjgBEBQtAdAS7U/EWAFEsBF/mOQIQFSwAUSFBTwJkASCKheDLfLDzlWjYWACioxzkxkT7wU4cJqLmCLrMC4rBbpCGiwUgIhSkP+htciIgUcSJBD4HQCn0BbpBGjYWgIgQSwVeAIKfPUxEjWSixAtYAKKCBSA6gh8B4ERAomgzsw8Hf7FCw8ICEBFKJPBWLZpzeYiizMQ+rIQjAFHBAhARAhO3ALgcMFGUmRjFEyv4ixUaHhaA6DBwC4AjAESRZuBxXiMXKzQsLAARoYCewDcqAghHAYiiysQkQAuqO/CN0rCwAESEKFlpZLucCEgUSWvX8gh+MQ8NvSLwjdKwsABEhKXVKiMb5qOARNFkaDVPy9DFCg0dC0BE+IChEQAWAKJIMlTefTfNAhARLAARkbF8MwWA7wQgiiRTt++yVtHMaCUNGQtARKjJM/oR8PsAAAB8EoAokgwt5d2v9p0V/HGKhoUFIFpWB71BEc2XAhFFkZHbd4bmKtGwsABEiCj8M/iNCl8KRBQ1AoiYuAUgLxjYKA0TC0CEWBp/MrJhIwcSIhou0Z6hkTv1pImt0vCwAESJUkYKANcCIIoYY0/viJmLFBoWFoAIEWVmBIBLAhNFi4iZAiCOesrIhmlYWAAiJP3qmOeh0Bv4hvkoIFGkGBm1EyzP7jX1peA3TMPFAhAhasoUH4KHAt8wbwEQRYuJWwAKvw1+ozQSLAARI1C/C3ybYmZNcSIaHhNP7ijgwcA3SiPCAhAxluU9YGK7fBSQKBpEazMvAdI+RwAihgUgYtJ7z3gaMLAeAN8JQBQNZsr6c9n9ZrxoYsM0fCwAEaSAhUFvky8FIooIMwXgdhMbpZFhAYggX+SOoLfJWwBE0WCirCtI4BclNHIsABGUra5+UAErAt0onwQgioTAHwEUvJSaPO2PwW6UGoEFIILUgV0eIDcEuU2+FpgoIoJeulvhF0opPiYUQSwAESXa/mnAWzT0chEiGoqgy7pYcmOgG6SGYQGIqMx+pz4HINgXb/A2AFGoBf0IoAgeyu592t8C2yA1FAtAhCml5gW6Qa0D3RwRDVHAo3QK6vJAN0gNxQIQYalu78YgJwPySQCikAt2H309nbZvC3KD1FgsABGmDplRFcE1QW1PhCMARGEmfoD7qMI8Nelkvio0wlgAIq4m1jwAxUA2xlsAROEW1C0Ahd50uXZVMBujZmEBiLjCfqeuhODKQDbGWwBEoSZBlXTBZerAmcG/mpwaigUgBtJp54cABpu+Ic1HfYlCLZhHAPvSnrosiA1Rc7EAxICadPJqQOY3eztcB4Ao5ALZR+Ui9dGpPQFsiJqMBSAm0n7uexAsb/Z2uCIgUXhJ89cAWJZOpS5u9kYoGCwAMaH2/68BpfDfTd8QnwQgCidB8xcBEpylJp1cau5GKCgsADGSem3sTwD8qakbCXCVMSKqn6Dp5fyR9D5Tf9XsjVBwWABiRE2Z4ivL/yqA5j2byxEAonBqajmXGmw5iS/9iRcWgJhJ7z3jaSh1adM2wBEAonBq6vwcdX7mI6c938QNkAEsADGUduwuAP9oxmdzNUCisGpWOZc/p3v885v04WQQC0AMqUknl5SlvwRIreEfzgEAonBqzuhcVWl1rDpkRrUZH05msQDEVHrv6Y9DqSY8FcAGQBRKTdg1BXJWer9pTzX+kykMWABiLL33qgsU8EBDP5RzAIhCquH75sLM5Gl83W+MsQDEmFJdOmXJ0RC8ZDoLEUXK39KV2vGc9R9vLAAxp/Y+bY2y/SPRoDcGBrDSGBENQwP3zQHYciRf9hN/LAAJkN57xtOAfA0NGSNkASAKp4bsm75AHcdH/pKBBSAhMvuctkBETR/xB6kGhCGiJhj5zimQWdl9pt7RgDAUASwACZLdd+p8CC4a0YdwAIAonpT8T3af0+aajkHBYQFImPQ+U88C8LPhfwKHAIjCaCR7pgBXZCaf1vyXiVGosAAkjFJK0pOnfk2grhzmn290JCJqhGHumgJcm5m8auS3BylyWAASSCklmcmnThPgiqH/ad4DIAqnoTeAdSf/U5Tq4hrfCcQCkFBrS8Cq6Qpy8RD/ZHMCEdHIDHXXFPwgM3nqyTz5JxeP5oTKo/NPV4KLUUchtLKtsLKtAaQioqEQtwK/WNej+76IOj2779T5zc5E4cYRAEJ28rTLAPkSgLLpLEQ0XHVdzxUhchRP/gSwANA6mX1OW6Asfx8A/9zkb+QkQKJw2uy+Ka8qpT6W2fe0WwPJQ6HHAkBvSe894+l0yvmIAu7f2O/hUwBEESS4Ny3ZPdKTpz5hOgqFBwsA/Qs16eTVqclTDxKFMwCpbeB3BB+KiDZvw+XcA/Cd9LKxh6h9T+wOOBGFHI/mtFG1xy6fJNq6AcAO63/NbumASmUNpiKiDRHfgz+w+u1fUHhBQR3Lq37aGI4A0Eal957+eDpf+rACLgHgr/1VdkaiUHp7BMBTwI/SjvNhnvxpU3g0p7rUHpu7u2j7Wrt11F7KSZuOQ0T/TjS8vlVPKy1fT+837f+ZjkPhxwJAdZMlXY4/dqeaslP83hCFjmjrzecy6sAuz3QSigbeAqCh4smfKJwsHACu6kd1YwGg+hUmtEDxK0MUTgr488550ykoOng0p7qVKrUWXv8ThZjOtJiOQNHBAkB1sy0rr/iVIQqvVJUjAFQ3Hs2pbpbtt3AKAFGISZpv6qK6sQBQ3ZSV6uT5nyjE3Gqn6QgUHSwAVDcNe7TpDES0cb6juI9S3VgAqG5KMMp0BiLaOO373EepbiwAVDc7ZXeYzkBEG6cA3gKgurEAUN20r9pMZyCiTVCa+yjVjQWA6mcpPmJEFGKWsvmqTqobCwDVTRR4cCEKMdHcR6l+LABUN4HKmc5ARJugJGM6AkUHCwDVTUHx4EIUbtxHqW4sAFQ3JSwARKEmvAVA9WMBoCHQKdMJiGhTlGM6AUUHCwDVTykxHYGINkV80wkoOlgAaCi06QBEtEks6VQ3FgCqnygWAKIwE5Z0qh8LANVPCQ8uRGFmcQSA6scCQHUTXl0QhZuAcwCobiwANBQ10wGIaJO4j1LdWABoCKTPdAIi2jgBekxnoOhgAaC6KQgPLkShJt2mE1B0sABQ3SztrzGdgYg2TpRabToDRQcLANXN48GFKNQsy1plOgNFBwsA1c1y9UrTGYho42yf+yjVjwWA6qYd/RqfMiYKsUz6TdMRKDpYAKhuaeBV4VLjRCElgMq9bjoFRQcLANVNTTq5BK090zmIaANEamr7Q6qmY1B0sADQkChI0XQGIno3ERk0nYGihQWAhkZrrgVAFEJKNNcAoCFhAaAh0SKcZUwUQgKsMJ2BooUFgIZERP/ddAYi2hB53nQCihYWABoSS7sPms5ARO/mC35rOgNFCwsADYlb9u7hWgBE4ZNG/nemM1C0KNMBKHq8537tKttxTOcgonVEavbOX8iYjkHRwhEAGjq+FIgoXMRbbjoCRQ8LAA2d+JwISBQiIvir6QwUPSwANGSivQdMZyCityngDtMZKHpYAGjInIxzNYQzAYlCQQDLTv/adAyKHk4CpGHxn/t1P2ynYDoHUdKJ9tc4u0wZYzoHRQ9HAGhYxK89bToDEQGA/6jpBBRNLAA0LErJLaYzEBHgQ91kOgNFEwsADYvl+z8V0aZjECWcSNqr3WY6BUUTCwANi9rjq73K8143nYMoyZTWL6jdj+crumlYWABo2LR2bzCdgSjJROsrTGeg6GIBoGFzBt3vitZ8HpDICPGtDus60ykoulgAaNjU/v81oPza30znIEoicb3H1dZTyqZzUHSxANCI+K57tekMREnk2+pi0xko2lgAaERS/dtcLtr3TecgShTRlfTOf/mN6RgUbSwANCLqwAM98dwHTecgShLxvZuV6uJzuDQiLAA0Yo54pwo4F5AoIGLb6bNNh6DoYwGgEVMfOuFv8Kr/MJ2DKAlEu4+pnT+/3HQOij4WAGoIG/oM0xmIYk8AGzLVdAyKB74NkBrGf/amV+Gktzadgyi2fO8pe9ej9zAdg+KBIwDUMOK7HAUgahYBLM872XQMig+OAFBDec/c9JJKpbcznYMobsR1H3N2++Jk0zkoPjgCQA2lXf8YCJ8IIGoogdi1zLGmY1C8sABQQ6X3PO5R7VUfN52DKE7E925Tk4540XQOihcWAGo4p2IdKdrnIiVEDSCiq3Yqe4LpHBQ/LADUcOojX3pNe1W+I4CoAbRbO1vtdPiA6RwUP5wESE0hIsp/fsEaZTudprMQRZXS3ovWLke/33QOiieOAFBTKKVEtPc5gGsEEw2HiNaq5n3adA6KLxYAaprUbsf+XrzKLaZzEEWR0t731B7H/t10Doov3gKgphJZ4vjPr1ylbKfDdBaiyPC9f9i7Hr296RgUbxwBoKZS6kBPV0ufhnBxAKJ6iNau1Z4/wHQOij8WAGq69J5ffVS75fNN5yAKPQG0756stv7M66ajUPzxFgAFxn3mpmetVHpX0zmIwkp893Zn1y9+znQOSgaOAFBgnJK/n2ifzzMTbYDS3qv2LtbnTeeg5GABoMCoycf12zX8B0T7prMQhYloXVV2dh+lpnDfoMCwAFCg1B5TnoJbncHVAYjWEkBE9KfVToe/YToLJQsLAAXO3v24K8St/dh0DiLjBFDizkztevQS01EoeTgJkIzxnr3pIeWk9zedg8gU8WpXOh/80lTTOSiZOAJAxti72gfAc/9pOgeRCeLWHuDJn0xiASBjlJriW6ni7qL9NaazEAXKd5+xP/jCQaZjULLxFgAZJy/cOMb37BeV5bSZzkLUdL73qqXU9mqXKTXTUSjZOAJAxqkdj1ltQ30QWpdMZyFqJvH9lZZSu/DkT2HAAkChoHaZ8qoF9yMiumo6C1EziO+vtN3UjmqXKYOmsxABLAAUImqXY563vcEPQXTZdBaiRhLfW227qR3VHkf0ms5CtB7nAFDoyDM/3UnbLU/CsnOmsxCNlHjeSjuvdlDvm9JnOgvRO3EEgEJH7fbVv1qVyp7QfsV0FqKREN9faWfd7XnypzBiAaBQUnse/xev1H0rXxtAUSW+C7e45gq1/XH9prMQbQgLAIWWeF5RD67hu4MocsRz4Q92w9K+azoL0cawAFCoidZgCaAoEc+FX+wGhG+8onBjAaDQW1sCulkCKPTEq/HkT5HBAkCRINpnCaBQW3vy7+HJnyKDBYAi4+0SoE1HIfoX4rvwi708+VOksABQpIj2oYtrAJYACgnx1074g/A7SdHCAkCRI76/dqgVvNois9bOT+GVP0UTCwBF0tqrrl6wBJAxoqGLPRDhvBSKJhYAiizxqvBLA6ZjUEL5xV4IH/OnCGMBoEiTWgm6UjQdgxLGL/ZBPL7Rl6KNBYAiT1cGIDW+QJCCocsDEJffN4o+FgCKBb/EKzJqPqmWoKsccaJ4YAGg2PCLPVwoiJpGPBd+me/1ofhgAaD4EIEu8skAajwRDV3qNR2DqKFYAChWxHfhl/jqdWosXezl6BLFDgsAxY7UKrxPSw3jl/o5v4RiiQWAYkmXB3nQphGTaglSK5mOQdQULAAUUwJd6uUqbTRs4nPSH8UbCwDFlmi9blIg0RC9NaGUKL5YACjWxHOhy4OmY1DE+OU+Tvqj2GMBoNjTVc4HoPpJrQSpVUzHIGo6FgBKBF3q5fvaabNE+/DLfMEUJQMLACWCaA2/yPUBaBPW3/cXLiRFycACQIkhXhW6yke6aMN0ZYCv96VEYQGgRNGVAYj2TMegkBGvxnJIicMCQMkiAs1bAfROIlznnxKJBYASR3wXuspHA2mttY/8cYIoJQ8LACWSLhd5v5cgbpWP/FFisQBQQq2f8W06BxkjGrrEpX4puVgAKLFE+9AVPvOdVH6pj++KoERjAaBQ6rr7ulH/dNHR7O3oahHi8VZA0kitAnGrTd/OCy7GnnTf1e1N3xDRMCjTASh5Zt8/f68VVe9LPWLtWRRsXVWqs6ysfFWplAaUtiwopeD4Pv7U2fzJWcp2YLeO4d6QFKLh968J5Or/I90KZceBiMDSGhYgaS1uDrqYgfTkBa/moR8d5elfX3vEzKeaHojoHXjIo6a5eMHFuefb7JNWedbnVyu1y4BSbVXlOLDq/NoJ8Hi7i0xzYwIArEwrrFxrAFsi0/xSH6RWDmRbe/RY8Gy7vt+sNTLa9woivR2in+20ZEGt2POTm6d08UUW1BQsANQwFyyav8WzlnfeG7512CplTazYjgM1sq/YlZka9s8E8TVVsAujoOxUANsiU8Srwh/sCWx7H+y1AWsEd1pFkPV9d7T4r42x9W1tquV7Pz74xO7GJaQkYwGgEZlx9+Vf/ZvG7OVi7VhuwAn/352gqphTCGaqirId2IXR4G4RUyLwB1YF9sz/ix7wuVKDC6UIcr7vjhP9/ARLfe/6Q6b9prEboCThkY6GRETUtHvnnftnF9PetJwttG039Tu0l67hJx3BfU2tbAFWtiWw7VFwghz6B4CrioL5frqp27A8X8aJ9/pWSl1446GnzW3qxih2WACoLjPvmnfCc77892uWs22zT/rv1O57eLgz2If17cJo3gqIGfFq8AeDHTk/rkfwtN3cAvBOlufLluL9faIv5/zi8Bm3BLZhiiwWANqouYt/2faY9Mx/AfYX+h0naySECP7Y5iEX4DdV2al1twIoFkTDH1gd+HK/e3crlBwn0G2ul/U9dxvt3jshkz32mk+ezJdf0AaxANC7fHPx3M88otXVr9upCSOawNQg307VcFSQDQCAlW2FleVTAXHgl/ohtWDf9FcFsGefA9XgOTFDpjUmaPeV9/hywi8+O+NBs2EobFgA6C3TF8879U8a31vppDvD9M3Y26/ius7giwhvBUSfiaF/ALitrPEtN4gHWOslaHPdwe0hZ9902PQrTKehcAjRYZ5MmXrX5ecv9a3ZxVQqlGe7Vs/F0lHBb5e3AiLO0NA/AHy9V+NRK0wF4G15t1bdCfq/f3XYjB+azkJmsQAk2LS75577qG9/e8BJhfNItZ4IlrZ5aDXwbeWtgOgKetb/O03qVqgauv9fr7znVj8A+c5Nh552vuksZAYLQAKdteiyL/9OnKt7U6mc6Sz1OtGq4XQTDQC8FRBFpob+AeDPLnB0OTrflza3NriTo7/4y4NnLDKdhYLFApAg3180b4ffi9z7opPexvjkpCHa0qvhnlFmMvNWQNQI/P7VEG3mTX9n9Gk8oMI9qPYuIhjn1d54fyV1wM++cMrfTcehYETrLEDDIku6nKPLY5Y8pZz9wzCrf1gMPA74TrwVEB1+uR9SDXbW/zvt060wGPLh/43yNXb03cULPzP9UNNRqPkiejagep1792XHTCqNLT1lp6N78gcApfDzYvCTudbTlUGIz9cGh514VaMn/2UaGLAjevIHANvCC+nMIbvfOa96/OL5XzAdh5qLIwAxtXjx3Lb5ov70Nzv93qgN92/Me7waFhm6DQAAyrLX3gpQES5SMSbiQ/d3B/Ka3435Zr/GHYG8v7L5RATbeNXnOkvde/KNhPHEI1kMnbto3onfgNP9dycTm5M/ALxqpVA1uH3RPvxyv8EEtCm62Gf05A8A9/l1vvo3ApRSeDWV3fXPLeNKxyyce7zpPNR48Tk7EGRJl3NEafTSP9vpSY1+K19YnG5XcWKL2d5q59qhMpF5gCIRdGUQujJoNMMjVY2Tq/G4+n8XEWzn1R6757Dpk01HocaJ51kigc6//9K9/q+Sfrg/5QT39hEDxnsu7jewKNC/UrDbRkNZEb7XGyPaq0EXu4Fg3xn1Ll/sFjwf790PBdctfbBif4hPCsQDbwHEwMx75557vZt9LO4nfwBYYTt4zTd8pIdAD/YABlaYo38l2ocu9Ro/+VcBPJ+AQjiQSuWX5vHCMYsunmk6C40cRwAiTKTLOvqu0f/vKSv94bgO+W/Ix3UVl3WY767KScNu6USSfvahIhr+YDfE90wnwWWDgut07Pv320Swg1v77Z2fmf6fpqPQ8PHIFVF//euPC2e8WH7pJSc9xnSWoDm+jz91huPqW6WzsPMdpmMkjwB+sQfimZwW+raPdQPdTnRW/2uUMTV39cTyqol8SiCazF9G0ZBdsuSSDx37YmVNEk/+AODZNu4oh6MASK1ifPJZEulyf2hO/n9zBWsSulT06nRqzN/zY/un3n3x+01noaFjAYiYb98778vXlHNPDjjhfHNfUK4ph2fwSlcGoatF0zESQ1cGoWvmFvv5d98ZlETfBSqlUpklOvfCCYvnHmQ6Cw0NC0CEnH3fZXN+7dvX+7aV4MPNWq9YDnqMTwZ8my4PQFdYAppt7c85PCMuPb7gGZWge/8b4du2tVSl7jlu4WUnms5C9WMBiIjpd8/70a1e9kKx4rPQyIhYFv53IDwFAAB0ZQC6Gp6TU9zocn/oRlq+MygA+/halo3HnMy1UxZd/n3TUag+/OZGwO8fuOTDJ7r5JxI9zrgBlu/jiXYNJ2Q11sq2wMoWTMeIFb/UDwnRsD8AeBrYs8+CtlnK/4UIPgp79I8PPtHM+5ipbiE7dNKG7Jlx3jT9nHMYadvGvFI4JgO+k64U4Rd7YPzh9DhY/6hfyE7+ADC3qHny3xABePKPBhaACGjZf/obee2F70wXAjfVwnkAFrcKf2BNKJ5Rjyrx3bU/Qy+cT5jd5Ibzu2dazvfD+Q9G78ICEBHbKP266QxhVHIc3F4O55W2+B78wTWhu28deiLQ5QH4g2sg2uzLfTbmlpKg4sR/5b/hGAv/BdMZqD4sABHxcUv90HSGsLo8RI8Evsv6k9nAauiQXsmGydqRk9VrS1M4ex0AYG4lxN85wyYAZ5rOQPVhAYiABYvnju1xqxOV65qOEkpv2ik8XQvx2QJrRwP0YDf8wZ7QDmmbJF4N/mD32tX9QnrVv96iimBNAlf9q4equRjrVz7ctXhum+kstHmssSH1rYWX7LPK9ae96vqfeKbqj69oQbYlh3xbq+loobSDX8P/dUbn66zsFKxMHiqVTe67BEQgtTJ0rRSpuRIf7QZ6WQA2qNRfRKVYQkYBO6Wd1dtkrN/mbX3hvMPPftx0Nnq3hB55wmnKb37wGV/U6a/U9D4vuzr/7//ddmy0jzX+LtxQEhHckvewQ9SOy0pBpTKwUlnATkNZ8R6UE9GAW4N2y2uX8g33wM273FYWfMvlwj8b07eqG7737hGcbR2rtE3GWlqC/Oiuo75xl4FotAEsAIadu+iSD3VXvW8/WXU/9VJV3nXS/3cd40bB4qNHG/R+v4pbO6N9AlW2A9gpKNuBshzAtqEsG5HbVUUgWgPag/geRHuAVwv98P7m7NutMMDJfxukfR+9Kzf/9N+WKau4fcq+34PzrdunzHo2gGi0ERE7qsRD1+K5basq1XP/7vrHP1P2Jwxl8LOlrRWZllzTskWaCG7Ie9gtaqMAdVFvjw6okJYc0ev+j0bkLu3r8KuSxve8jOkYoVUpllHqr38lTEsB70/bq7dLWb9+fSB13u++OrO3ifFoA1gAAvS/d/zosGcq/vl/rHi7FLUM62efSqdRGN3e6Gixsa1Xw8JR/FpT403uVijy6n+jBrr74FaHN8E1ayn5cNZ+Yryj5lx75FkPNjgabQSPlE0mCxbY38+/Mufxsp75SNEb34gB0M7xo2N/r3j4BD/NupiU5lebGueGksYPePW/UeJr9KxcM+LPUQB2yzird8ral4393OzvdynFBdCaiEfJJnnkgYsn/q4kP7q/6B7xTMVv6KyhlvYCMvlsIz8yVrb2a1gcoScCKNw0gL27gQpn/m9UpVRGqa+xL8J6f8aq7JtzFuzptJxx7GFTexr64QSABaDhHv7txbvc0qevuqvo7rfK0035+aYyaRRG8TbAxogA12VrmJzh15tG7n/7BQvAmf+b0r+mF16tOeuUjLGV/mTBefDjhezXj/jPGS82ZSMJxSNkg7zw8BUfvaG7NG9Bf2231V7zJ0B1jhsNZfM2wMZM8Gq4l3MBaIR6BfiPPgt8DffGaS3oXbG66dvptC05pJB67Kg268T9Pz7r+aZvMAF4hByhF3936V4LBr0rf9lb23NFACf+9fJtrcjyaYBN6kpV8fkcSxIN33E9gqdtXv1vylBn/4/UKFvhiLb0s0cW1Jf3/vjspwPbcAyxAAzTqw/P/eiv+rx51/dUd3vTwIv67JSD9jGdgW83SrK+h8c6hetd07A8XRMcV04ld6XGOvWt6oHvBb+S4/oiMKXTOW7P/zjjmcADxAC/2UPU/fjVH/zpm4O/+FlvdfflAV7xb0j7mE7YKT6WtCmfRxVdbawANHQHdINr/m+G53roX212ft4WjoWj21K//+K49mO3n/z1ZUbDRAwLQJ1Kj87d6je93lXX9tYO+UvFD8XPLZvPId/OdwNsivI1ftvhYQyv4mgI+NhffYp9A6iWKqZjAADem7b0UW3phXNarK+oA7moUD14VNwMefjHhVuKA/N+1ls9bmnZC9WlpKUUOsaP5hDlZnzQr+FGPhZIdXIF2LvXgssltzdNBD0r10B0uFZ93D1re0e1ZeafnOubow7sis5bpgzgUXEjREQtuveyU28ZrF2wcMBtCddX/G2tHQWkc1wTYJMEuDpbxb6ZUPU3CqnZ/Rr3glf/m1MtVVDsGzAdY4MUgI+3pgYObXFmHv/pWT82nSesWAA24M77Lzvw/gH3+gX91a1C/pp5Tgas0yjPxYN8kSJtxt9cwZGlFBRH1TbL1OS/oUgp4BMtqVf3anWOmnHwrD+azhM2/Ja/w+LFF7zvnpr16zv6a3sOhGxYa1PaRnfASXOy0uacbldxYgtHAWjjDuwGVnPi32a5tRoG1vSZjlG3nAI+1uI8+sF87qizD5nBiYLrsAAAeH7J/NZfDpR/fHt/7aiV3vBe0mNSOptBa2cK//jxAAAOXklEQVSb6RihZ/k+Hurw0carO9qA+YMaV2kO/ddjsKcftUrVdIwh67At+VQhdefeOfnS8Z86s2g6j2mJPhKKiPqfOy/+zt2D7tl/rzZ2vf4gKQW0jR0Fm5OWNosTAmlDVvqCT/Y70Fxdc7O076NvZXekX/i8bcp2P9mSuvL7h886QykV5b/KiCT2SPjdhRef8rti7cKnKn4snqPLtOTQ0haLv0pTCYAfpGs4LJvYrz5twGHdglecyF4DBKrUN4BKSB79G6kPpK3i/nnn3PM/d+Zc01lMSNxR8PyFFx7wRFX/7MFBb5tY1T6l0DFuNCwrcf+kQ5b2PSztFL7ehQAA1xU1LvM59F8P8TV6Vq1BpC//N2CPrNO9dw5f/+7hZ99iOkuQEnO26Fp80c4vFP1f/a7kfdCN2Zd3vWxrHvlCi+kYkbCPruKaDg73Jt0bnuDgAQfCof+6lAcGUR4sm47RFA6A/2hJ/XlnWx3ddeSZz5nOE4TYF4CLFl405i+eXP/bQffgAT96E/yGQlkWOsaOguIowOYJ8KNMDQfxVkCifapH8AZf9lMXLYK+FWsgEtMrqHVyCjiwJfXoDhnnC+d9ZtbrpvM0U2yPfl1LupxiX+ul9xTdU95wdWJmx+VaW5Ar5E3HiISU5+OhDg0+GZhMFw5qXM9Z/3UrDxRRHiyZjhGYMbbSnyqkb35fOn3CjENmRO+RhzrEsgDMvv2Cs/5Q9L7zj5okbok8pRQ6xo2CsnhWq8dufhU3dPJnlTTPuMCxRQfgaFldRGv0ruyO/dX/hmyTtmr7Z+35lx151izTWRotVt/+b95+0QmPlv1Ln654HaazmJRtySPfxrkA9RAA5zhVHJtnCUgKTwP79SqUHL5Js17F/kFUi/G891+vnbP2wH651NnnHz77StNZGiUWBeDixRd87IkSfnJf0X1vhBbwa551owAWRwHqorTGHa0etnVisTvQZhzfI/gT7/vXTfsavTGc+T8cCsDkfOq1PTJywv8cfvYS03lGKtJHvAsWXrD9c1Vc/0DRm1xN4NDUpmTyWbS0F0zHiIwO18XvR0d8h6DN+nlRcKGf5r/zEBR7B1Atx+O5/0ZJK+CTLelnPlhQR8/51Jy/ms4zXJHcD35+//dHP9yXuv63JffTfTGf2T8SbWM64aQ4zFmv/5QqLm3nqElc/dUVHFV0AI6M1c1zPfSv7jEdI7TabUs+3eI8uG9b6ovHfOKMFabzDFWkTp6LF8/N/MGtzb1zwP2v173kzOwfLiedQtvoRE+HGBoBvpOq4ch8pHYLqkNZgI/1KpRtFuKh6F/TC6/mmo4ReuNtpQ9uS9+2e1aOj9I7BiJzpPvmwovO++2ge97fq3xuZyhaO9qQzvFHVi+lfdzaqvE+nidi5XPdghe51O+QVMsVFHsHTMeIlPVPDHQeceacLqW06TybE/oC8K2Fl5z4h2L1omcqfrvpLFFk2WsXBwLfgFe3Fs/Dg6MErE3x8N/9GrfwX3NIRAR9q3qgfd90lEjaNWMPHpC3z+k6/Mx5prNsSmjPCuct+tFhTxbdq/5Y8ieazhJ1udYccgW+KGgodvJquHlUaHcPqtNtZY1v1TIhPtKFU6l/EJWEP/bXCHtkne79c84p/3347JtNZ9mQ0O0WXYt+OOnPZXX97wfdD3imw8SEwtoJgTYnBA7JEVLF/3BSYGT92QW+OGhznf8h8r21E//4YFVjWAr4SM5Z9pF86phvHzbrIdN53ik0BeDaxXO3erRc+dXdg+5+VX7xGs5JOWgb02k6RqSIALOdKr7KtYIjZ7UIPtlrw7M5V3ioOPGvOdJr3zHw3L4p/4hph5/zD9N5gBAUgK4l81tX9pauvH/QO6bb1zzSNlG+vRXZfM50jGjRgqtzNeyb4VczKqoA/rNHoY8z/oesWiyj2D9oOkastduWfLzVvmuPlH/c1MPOMfqMpbEC0LWkK7umt3X+74ruCcv5SF8glFJoH9sJi1dFQ2L7Pu4o+HgPVwoMPQ3gkG7B65zxP2Ta89G3uieR6/2bMMGx/ANaUj8f3TE4revALiMrLQV+ROta0uX09OQveKjsT3vV1dxLA8ZbAcOT8Tzc3akxhk9ThNoxPYJnuczvsHDo34wJKeUdmE/dMimPrwW9hkBgR7MFC7rSj2dafnTfoHfSazzxG5UvtCDbylcGD1Wr5+G+TkErO0AondGn8YDi437DUR4sozzAoX+T3pOy3QNbnF/uPe4906bsOyWQRzCafii78J7rW14uvnnpI2X/hNdcnWr29qgOSqFtTAccvg1tyMa5Lu7pBBxOCQiVb/Vr3MZn/YfFd330renmy35CYtu05R3Ykvr17qn01OMOmdHfzG01rQBcf8+V4x4rDV7zUMk77A2X9/jDxnYctI/p4AJBw/Aev4aFnQrsAOFw/oCPGyRrfkZzBIkI+lf3wvf40HXYbJmy/P/f3v3GyFGXcQD//n4zu7O3t7e71zuB1Iqa2hfUpFohJtfqC4I2RjD2j1SPQrUU+k5NaGMxMebeFNLzKKaGpqQGbKinxQo9WkADSOEAT9QXrSRIAVNabc/mbv/N7OzOzO+PL1q1Ten1bmeuc7v7fJJ7cZO93efFzjwzz++559fXYT6zKME2bfnalonZ+IzIz5mfPzv08b8FevcLTrDirNB0jZzDaMfAxi0QAQ7lqRIQt+0ViSdAyb9R1VIFXs2LOwwyhW6DqeVpc/SjKf7tbbdu+SDK947svNn53ODCYzW29yU3WGbTDn1NozPfBasjFXcYTel6EeCZbsCgb3ssttsaT6gkFbEa5NU8VEuzWmEmEcpwrvvSxivdgbF+V//mU1G8Z+hT5we/+tn8M8na3tddeUtFKjoVmwxj7NyUQJNWaRpxvfQxkmNUCbjKflTRGAH1EjdKCnl+2h8t/DebNGd6acp8Q9WtOw6t//7JMO/VcMLeNDzUW7PU8Guu/JJNib+pGaaBbG83GD1KNeRaEWAkD9DAwKvjuyWFI5wa/hpF6/6tIc2ZWpoynn9b1L5z/I6BhnoEZn7FHxjg6z6dfvAvnrhvUmhqI28RSctCZl427jCaVloIjOQUrqP1gFl1b0lhjJJ/KHaxgqBO6/6tIsOZXJg0Hn2/Vtt8YsPMBgrN6Gp199ODa4658vETgaLOsRZE8wHCSQqJ/VmJT9HEwMjVNbCmqHGSJvyFUrOrqDlu3GGQWdBrsMpHTGPjaP/WA9P9m2ldqRY8uaNjsfIPHq3LFbQ7dGvr6s4ikaInrEZxKbEjJXBLB60HROWU1PhGmcOluRWh+HUPTpGa/lrdJ5P8lXdcb3XlnoHClV57xRuAdfsfWP62YM+dDBTVh9sBY8j25GHS1sGN0xobuI/7uugmIKw3PY1NrgFJ+1eEIgIBe7JETX9tIs/hdlrG6qPfvP/3U71uyivUhgODPz5Sxygl/zaiNZxCGVJSradhjOFxbWFDSdFwtRB2OwobawlK/iEpqeAUKPm3k5JC+kxN/G758PbBqV532QpA/4HB4ZeqQb+i70xbMkwT2Z48GKf17DB6RYBfZjXmU1/AtEkNbCwq/NWkpaiwtNaoTJYgA+r4b1eLLH74j8bClVi79pKnug+tANz91ODwCw4l/3YmhYBTLAP01BDKhJnAV2wDT7oq7lCawj+ExheKoOQfBQ3YhTIl/zb3rqdu6xPvvwh96YC+Sw5s+u3gnqft4B667BMASKSSyORzNG0tJA3g88rHnhyjyYGXsdtR2BUkoA3qnQhLa8AplhF4ftyhkDliSco4+Idv3b/qwmMXnWnbDj20/rBDyZ/8X1D3US1T53BYDMCfeRLLigxjHp1hFypKjZUFjUeURck/ItWyTcmfXORYXa5ctX/71guP/e9Z5NGXh3r3nA5On6Ate8mHsNId6Mxl4g6jNWiN5crHzm7e9sNsH3MUfioS0JwSf1SqZRueO6N5MKRNdDGmbuowFv9m7dZ3gAsqAG8V9UFK/uRyPLcGt+zEHUZrYAyvGxb6igyH6+1ZDTgeaKwoAA8ri5J/hNyyQ8mfXJatNffAnvrv7wwAhl4cWvzIGf8t2sWPXAltIRy9a0WAHV3Akja4/a5pYHNZYZQlQY0l0XIrDurVWtxhkDnOAPDlHL9536ofHuEA8IHNdlHyJ9PhuXVUy3bcYbSUf5sJrHNNrC1qnJWtWRFQAB52FPpKHKPcouQfsWrZpuRPpkUCcAXfAQBM6wG+7Ncp711P0ug3Mm1Wh4V0Pht+P2lyEaYUPqcCPJBjmN8C/y6gAeyqKjzmm/BpoE/kNAC3ZMOrUdmfTF+WM3VjKpUxsjd99a4RW6yJOyDSXKSQkELAStHTXKQYwxluYp/P8XJN4bMJjZ4mHMbkA3ioovG9KsebLAlJ6/zR0xpOsQKfdvYjM+RpsBstXjBPC3573MGQ5hTUfVQKZWTm5cDpJiBajOHvRgJrqsB1ysedlsZdaT717O454HgA/KSq8Cec7+ynuuKsUOdHdgs/iDsU0qTqTN/G/ynkkrgDIc1L+AGciRKUpEl3s4IB40YSQ8LC0qKBe0sKR/251SfgaGCnrXBzAVjtJjDGqbN/NimlYE+UKPmTUMYDdYM5LvQ1cQdCmpsQApXJIjLdOdpFcBYpg2MMFsbqgOlKLNISX7c0+mOoDJQ08IuqwrMBwzhPnFsGMqe5vzhpmAwk7GIZijbrIiFNSj2PfWbfg/JfQtHtOgmPMXTlu5BI0Rz3q0opzFMCNzCNL1rArR0c+Ygz8bjUOFTXeNUH3tMGHMOg3o+rLKh7sEs27c9BItFjMMU+tnebrtH3iUQo3dWJVCYddxhtS2sgoSS6tEIvNBZwjYUmwycMoIcDnRzo5cA1BoPSwITSOCuBktSwAbwnzv2cAkNBM1QZh6YO/ljVHReuXY07DNJCLMbwH+58mWwdrRDTAAAAAElFTkSuQmCC;" vertex="1" parent="1">
          <mxGeometry x="360" y="60" width="70" height="70" as="geometry" />
        </mxCell>
        <mxCell id="8nGL6lLDQIwl6OMTAhl0-4" value="ZooKeeper-1" style="shape=image;imageAspect=0;aspect=fixed;verticalLabelPosition=bottom;verticalAlign=top;image=data:image/png,iVBORw0KGgoAAAANSUhEUgAAAgAAAAIACAYAAAD0eNT6AAAABHNCSVQICAgIfAhkiAAAAAlwSFlzAAAOxAAADsQBlSsOGwAAABl0RVh0U29mdHdhcmUAd3d3Lmlua3NjYXBlLm9yZ5vuPBoAACAASURBVHic7N1noB1VvTbwZ83MrufsU1IJAQGVIiCIBAnFK3gVEVAEJSggqBcpCQmkAILoPd6rooCUkNBtKKDBSwsJ3YggAV9AqooKUgIh7fRdZ2b93w9JACVln3P2njXl+X2515DseXKyZ+aZNWvWKBBRwy2YeXEuj+WTFDDJsvROUN5WtuWPt5XbYVt+QSk/Z1k6bVuubSltiRJlKQ1L+aohAUSh5udR03mIlYZtW7DSgJMS2I5AWQLHEUAJfN+GiILv2vB8C75nQbsaSmpIYRAp1YfGhAK02KLFgoISX1ta65QvYlW1tiu+tgd8cXq0Tq3QYr+mlPqLr+3HS20vPT6l6+ZagyIQ0TqN2q+JEmnh2ae/R7npQy3L299R7m5ppzIx5ZQLKafqKKUDzVJxC3BRgJO1kWvz1p7gG8D3bZRLGfgVDVv6kVHdgR44RCy4ftZ1vcyA62Vf9XXqGV/sh1K2vfigCy54I8AoRLHCAkBUp7tnzhzlWdaxttIHZ5zS7pnU4Ph0quyYzFRxC/DsDuTbNNI5P5BturUUyoMpKLcfObUGUI0pGsNR8/Jupday3PNzf/J86650avBXn/zhNX3GAhFFCAsA0UbcMqdrXNotnpJOVw/JpAZ3zmX6CsrgyW49Xzsoe2ORaXOQK7hGs1TLGZQHgBzehK2qRrMAgBYLlVqhv1JtfU4jc1vW86498NJLe03nIgojFgCid7h1+nkHZTKVE7Op/gNas91jgx7G3xTXz6CqR6N1LOCkwpMLALRvYaAvi7S3AilVNB3nLVosVKrtq2pu/hHx1M8PumTuraYzEYUFCwAl3h0zzvpyJlOd1pLp/nAmXUyZzvPvPJ1BBWPRNtaHZZkfgdgULQoD3Tlk/ddDMSLw7ypuS7VUaf+j6+cuP+ziC282nYfIJBYASqRbT//m5/Pp/jmt2e5Jpu/jb4zWNga9LdA2XuA44bri3xzPc1DssdAiy4AQjaK8U83NucXyqMdKuv38z1383cWm8xAFjQWAEuPWM76xbT5dPj+X6v9sLtOXN51nU4rVUciMyiOb90xHGZFqOYPaQBk5tdJ0lE0qVduK5Vr7HSrtnv2p713xmuk8REFgAaBYE4i64/RzT8xn+s5sy6/a3rKCmSk/XL52UMYEdIzzjM6ub7SBnjwy7muwlNlJi5ujtYVSbdQ/y27+kkMuvPRy03mImokFgGJpydSu1lKu/5JCrvu4XLo/azpPPUq1TmTH5JHOhLukDFetmobbW0LGWm06Sl3KtbZSsTz6l95AYeZnrukqmc5D1GgsABQri6eftZXKunPbsis/m06VbdN56iIKg94EdEyQWF31b4iIQv+aDFr0K5H5u3p+RveXxjxUqrT/1xGXf/dF03mIGoUFgGLhlqnnfaA13//z9tY3J1mWF5nvtacz8DLj0NoR7qHxRisO5GCXl8NRFdNR6qbFkd7BcQ+XkPvqERdeyCJAkReZAyXRhiyadc4OKXvgJ+2tK/Zt2Dr6Aam4BTgdbcjm4znkvznVagZeXy8yKloL92ntSG9x/GMlZI9jEaAoi9QBk2i928/64ZY5/cYN7a3LPxalK/71irXRaB2fht2g9fqjyvMclNZUkbdWmY4yZFps6S+OfVjn81/4VNdF4X7MgWgDInfgpGRb0HVUum1wq6va8itOSDkVy3Se4Risjkf7RAthWFY4DERb6F9toUUtMx1lWFwv6/cMjr9p2Y7Fr5188jXJupdDkcYCQJGxcObZp7e3LP9BLj0YiVn9GzJYm4COLRGZCXCBEYW+1Wm04BXTSYatUiuU1gxsOetzl51/teksRPVgAaDQ+7/p35zckV9zc1vLyq1MZxmJQXciOrZM5v3+evWuzKJVvWw6xvCJQl957Mv9lYmHHHnpt/5iOg7RprAAUGhJV5d192D/z0e1Ljs2ivf532nA3RKdW4ZzSdxQEYXe1Wm0RngkAAA8LyNrBre6sTT55ROmTLmZrY9CKdIHVYqv38w475CxheU35TM9baazjNRAbQt0TjSdIkJEoW91Ci141XSSEStWOvsGylt8+TOXfG+h6SxE/44FgEJl8fS5GSvz0p2dhWWfsEL6EpmhGKhtgc4tFe/5D5Uo9K5y0Kqivyy/1hZ6ihPvHtO382cnXXMyJwlSaLAAUGj85rSuSaMKy+4r5Lo7TGdphFJ1NAoTU1Dcy4ZHFPpXAnlruekkDVGsdPavGtzu00fNPe8R01mIABYAComFM79x2djCy9NtpxaL72TFLSA3tg12ird/R8L3bVTXDCIdscWCNsbXKVndt811h11ywUmmsxDF4mBL0bXwlIsnZtpe+n1n6xvvNZ2lUVw/C7tzdGxf6hO0aiUN3bcSKSs6ywZvTl9p/CtVf7vJh1541pums1ByRXIhFYqHW0//5uc7xjz9UpxO/los6PwYnvwbKJOtQbdMgNaO6SgN055fsU1b9rlXbj/9zKNMZ6Hk4ggAGXHX7DOuHVVYdqJlRX+i3zsN6q3RMZ7zvJqhv7sFeT9eS++LWFjTt811n774R183nYWShwWAAvXTr3RlJ45bs6Sz9fXJprM02mBtPDomcpdqpv4VDvJWNJcM3pS+4hZ/8f3t9vrURWcWTWeh5ODRigKzaNY5O7RkV/6xJdvTbjpLo1XcAlrGF6DseI1ohI3v26isHkDG6jcdpeEGy6N6uqUw6fM/uOQl01koGTgHgAKx8IxvHNDRsuzZOJ78tViwCu08+QfAtn1YraMgMTx0tea6O7dIrfrr4pnfOMh0FkqG+O1FFDqLZp954pj2lx9Ip4pp01maoaQnIF/wTMdIjFxLBSW1jekYTZFOlVKj2v9596Izzp5mOgvFn206AMXb4tmzLxrb9vL5dsTX8t+YUnU02idYvJkWsEzeQ3Ewj5SK3y1zS2mVz/Ye8rk9D87fuHTp/abzUHxxBICa5q45s64a0/bKbBWDJX03xNcOMmMyXObXAAUg25mFlpTpKE2hlMa4tlfOWjxn9k9MZ6H4YgGgprhnzukLxhReOTmuJ38AqGALZLLx/fuFXTpdQ9ne2nSM5lGCsYWXv3rXmdNvNx2F4okDl9Rw95457YHOwvKPm87RTKVaBwoTs9yBTBOFwZVVZK1u00maas3AVksOvnBurPcpCh5HAKih7jlz+u/jfvLXYiHd0cqTfxgogV1oh0i8D2WjC8sOvHvO6UtM56B4ifdeQ4G676zpvx1VeP2jpnM0W9HbAtkWzvoPi1y+jCJifCtgndFtrx1wz5nT7zOdg+KDBYAa4r6zTruzo/X1A03naDbPz6BtHCf9hU1htAdPt5qO0XSjCq9/4t6zpt9pOgfFAwsAjdi9Z51xfUfrG4eazhGEijUOtsMCEDa27aOWGW86RiA6W944dNGcmb8wnYOijwWARmTRrNnzOlpf/bLpHEGouAW0j+OLfsKq0FFERUaZjtF8SjC27ZXj7pwz5xLTUSjaWABo2BbNmjVrbPvL0xIzGS7XwYl/IaYAINdhOkYgFICxrS+fsWjmmTNNZ6Ho4vGMhuX2M849dHzHiwtty03Ed6hU60TbxIzpGFSH/pVAXr1pOkYgtNiyauC9nznsoh8uMp2FoocjADRki6ads8OYwqu3JuXkDwBOIf4TzOIi1ZpFUmZpWMpXnfllt90x8+xdTGeh6GEBoCG54dTzOwsdbz6RTpXiuQbrBhRrY5Bv473/qMjlKyjpiaZjBCbtlJ323Mqlt57RlYz7H9QwLAA0JOPaX/ljLtOXnMthUUi1ZU2noCHKtjuAJGaACvlsX6GQWfG46RwULSwAVLd75pxxc0d+5ftN5wjSYG00X/UbQZlsFUWZYDpGoNpbVrzvrjNPv9F0DooOFgCqy6LZs0/pLLz2BdM5gpYq5ExHoGFKt6VNRwjc6NZlX1o8Z9bXTeegaEjOGBkN223Tu3Ye1/m3Z1JOxTadJUil2ii0TUzeSSROkvREwHqul/F71my786Hzz/+b6SwUbhwBoE1a0tXltLcu+33STv4AYLW0mI5AI2Tn8qYjBC7lVO2W9tUPS1cXj++0SfyC0CbVij23t+a6R5vOEbSy247WDs78j7qWQgllP3FfX7Rk14y9t9h7i+kcFG4sALRRd54+57jO1mWHmM5hgk61m45AjZJN5r9lZ+trhy8+/cyjTeeg8OIcANqgW8/o6hhbeGl5JjWYuGfgXD+L7NhOKDspy8nEm4hCdVUvHFU2HSVwlVprtc/bcsJhP/hBj+ksFD4cAaANakmv/l0ST/4AUJXRPPnHiFKCirWF6RhGZNODmYwU7zGdg8KJBYDeZdGsOTM6Wt/Y3XQOE0Qs5Efx5B83+YKfqIWB3qm95fW9Fs0+6xTTOSh8krlH0EYtnt7VVuh4aWU2NZjIN98Uq2PRvlXiHnhIhP4VQN5K1iOB61Xdlmp/7/vGHXJ5V7/pLBQeHAGgf2FnVy9O6skfAKx8Iu96JILKJfexzkyqmLGzq281nYPChQWA3nLbzG9/pqPlzf1M5zCl5uXQOoqP/sVVoVCCK8lbF2C9jtY3P377GeceajoHhQcLAAEApKvL6swt+6VladNRjKliFO+JxZkS1KxxplMYYymNjvyKX5jOQeHBAkAAgEUDA5fns71tpnOYIgDynaZTULNlWpI9wTOf7em8a9asH5nOQeHACx7CLeecM3p86tU3007ZMZ3FlFKtE20TEzv1IVGKK2rIWN2mYxjjelmvf2D8+IMvuSS5PwQCwBEAApD3B29L8skfAHQquRPEksazk7ky4Hopp+Iox/2V6RxkHgtAwt0641t7dubf3N90DpNEFFo7kjv3IWmyrcldE2C9jtYVn7j99HN3M52DzGIBSLjWbPeNluWbjmFUyR0FJ80CkBSZbA0VPcp0DKMs5at8pv8G0znILBaABLt99rmfbG95cwfTOUyTVHIfDUsqz0n2bQAAaG9ZvuudM8490HQOMocFIMFaU93XKZXsWdEQhRYO/ydOvs1Fwr/5UEqQa1lzrekcZA4LQEItnHn2Zwr5le8xncO0ktuOVDrZt0CSKJ12UdWjTccwrpBb9b47Z37jE6ZzkBksAAmVS/XPT/Y0qLW0zdn/SeXZiV324i0KQC7de4XpHGQGC0AC3T7jvIPbWlZtbTpHGGQKrEFJleZrHwAAhfyq7W+Zfs7HTOeg4LEAJFBLrvtSpXjfu+blkGvxTMcgQ/ItFfjCxZ+UEhRyffNM56DgsQAkzJ1nnPeBtvzKHU3nCIOa5hBwoilBFZwHAABt+ZW73nX6WTwuJAwLQMI4zsBVvPpfy0qnTUcg01I50wlCwbI0rHRlrukcFCwWgARZcPYP2tvzqxK96t96AiDfztn/SZdrrSX+ccD1CrnV/7lkaler6RwUnESv/540tV7r9J6WCSx9AHykkPK5ABAB7kAONlzTMcLA7pfMqQAuNB2EgsECkCC9gxMP7RucaDpGeKwwHYAodA4DC0Bi8BmohLjiSzfuJpY8bToHEYWb1uoD02865q+mc1DzcTg4IbQlJ5nOQEThZ1n6BNMZKBgsAAlw8VELcgo4xnQOIoqEr3QdsIS3hxOABSABsunaEQA6TecgoihQW4ydsPzTplNQ87EAJICGdbTpDEQUIZY+znQEaj5OAoy5S77y0450Lf0mFLjmKRHVq1Sy/HFn/uL4oukg1DwcAYi5jJs6nCd/IhqifFacg02HoOZiAYg5UWqK6QxEFD025AumM1Bz8RZAjF3ylZ92pNz0CgVw0XsiGqqBai01ftbNU8qmg1BzcAQgxlJe5iCe/IlomArZTPWTpkNQ87AAxJgS4aM8RDRsIupTpjNQ87AAxJRAFICDTOcgoihTvIiIMRaAmLrimBt3B7Cl6RxEFGnbzT36V+8zHYKagwUgppTi8D8RjZztaN4GiCkWgJgSqI+bzkBE0ScAC0BMsQDE0IKjFtgA9jadg4iiT0H+o6uri+eKGOI/agytzFR3B1AwnYOIYqFj7Is77Wg6BDUeC0AMWWLvZzoDEcWI7+9rOgI1HgtADAmEBYCIGsfCPqYjUOOxAMSQgDsrETWQCEcAYojvAoiZ645aMKqadteYzkFEsSI+pGPGDcf1mw5CjcMRgJipptzdTWcgothRlrZ2MR2CGosFIG4s7GY6AhHFj6Xkg6YzUGOxAMQPd1IiajitZFfTGaixWADiRjgCQESNZ8HixUXMsADEzwdMByCi+BFwBCBuWABiZO5RC8YCaDWdg4hiacwlX/lph+kQ1DgsADGSSrnbmc5ARPGVrqW3NZ2BGocFIEZ8S21rOgMRxZcA25jOQI3DAhAjSvS2pjMQUXwpC9uazkCNwwIQI0qpbU1nIKJY4whAjLAAxIgItjSdgYhiTFgA4oQFIEYUMMZ0BiKKNR5jYoQFIEaEOycRNddo0wGocVgA4oU7JxE1kfAYEyMsADHR1dVlAeg0nYOI4kyNFghfIx8TLAAxsdXzO3cAsE3nIKJYS11+7A0F0yGoMVgAYqJq+y2mMxBRIrSZDkCNwQIQF46XMR2BiOLPEZU2nYEagwUgJmzulEQUAJ/HmthgAYgJ7pREFASxfY42xgQLQEyIbXGnJKKm42hjfPBxjhB6/OqTUmnfbpWU3QHPa4Flt/i+3uTM2+XLJmz7+vKtTw0qIxEl08QJr105YavlL2/q99i2NQDtF+E4ReX6vTXbH5x08jVuMAmpXiwABi1YcJS9w5rRe4qyJongA0phBwh2BPAe8N+GiOJDALwKhReUVi+IJX+Fj//397Grnpwy5WbfdLik4kkmYE9fceqOGtanBfJxpfAfANpNZyIiMqRPBL9XFh4A/MV7nHL1300HShIWgAA8c8WpnRo4ShSOB9S+4M+diOhdFPCEKPzCEn3T7qdetdJ0nrjjiaiJnrxq+u6WeN8QWEcCwokzRER1UTVA/s+2rPN3O3nes6bTxBULQBM8deUpe4iyz4HIF8CfMRHRSNyvRb6159QrHzUdJG54cmqgJ+dN20Y5cikEnzOdhYgoTkRwi7a9mZNOvuZV01niggWgAR6/+qSULc5UCL4LoNV0HiKimCoBuLDVtc/ffsblVdNhoo4FYISevGr67kr8mwB8wHQWIqJEUHheazlmz6lXPmM6SpRxJcARePKqqccr8R8BT/5ERMER7GIr9difrpp6uukoUcYRgGH464+/VihVs9cqhaNNZyEiSjZ1Y1rLybtMu2LQdJKoYQEYosfmTRudseVOASabzkJERACAxy3oQ7l2wNCwAAzBn648ZVuIdQ8UdjCdhYiI/sVLWuNTe0674h+mg0QFC0Cdnpo3bRex5T4AE0xnISKiDXpD+eqgD502/3nTQaKABaAOz86furVr4Q8K2Np0FiIi2qQ3AL3fHqde9bLpIGHHpwA24/GrTxrjWbiPJ38iokjYErDue/ba08ebDhJ2LACb8Pz8qa2Odu4GsKPpLEREVLf3e5678Onr57SYDhJmLACbULNxpQB7ms5BRERDtpcUi9eZDhFmLAAb8dQVp54EwXGmcxAR0fAI1BefunLa10znCCtOAtyAp688ZVcN6zEAedNZiIho+BRQ0cqe/OFTLn/adJaw4QjAv3n86pNSGtZN4MmfiCjyBMgq8a9f0tXlmM4SNiwA/8bWzkwAu5rOQUREDbNb5xYrZpgOETa8BfAOz86furVn4c/gK32JiOJmQEF/4EOnXvW66SBhwRGAd/AtuQQ8+RMRxVFBYF1sOkSYcARgnaeuPGUPgfUE+DMhIootLTJpz6lXPmE6RxhwBGAdgfUt8ORPRBRrlmWdbTpDWPCEB+CJ+VM/YFl4DixERERxp5WvduMLg3jCAwDYlpwD/iyIiJLAEhtnmg4RBokfAXj86pPabe0sB5AznYWIiJpPARWppCfsMfPSXtNZTEr8Va/j20eDJ38iosQQICu52udN5zAt8QVAoL5sOgMREQVLCRJ/7E/0LYCnrz1tO+3pF5HwnwMRUQIJoN+7x6lXvWw6iCmJHgHQrn8IePInIkoiJUodbDqESYkuAErhQNMZiIjIDCUq0eeAxBYAESiB+pjpHEREZMwBIskdBU5sAXjqiqm7AxhjOgcRERkz7tlrTkvs218TWwCg1CTTEYiIyCzt+4k9FyS3AEB2NJ2AiIjM0paV2HNBYguAAIn9RyciorVUgi8GE1sAFAsAERFJcs8FiSwAIlBQ2M50DiIiMk29z3QCUxJZAJ645qQcgJTpHEREZJqkl/z0K1nTKUxIZAHIWLmC6QxERBQO7QOFRJ4TElkAajU3kf/YRET0bo7jJfKc4JgOYEgKwEumQ4SJUiqTymYnms5BRM3lVqvLROua6Rxh4orKmM5gQmKXQKR/5S69cj+rY9zDpnMQUXNZ2t9b7TLlj6ZzkHmJvAVAG+CovOkIRBQA7XNfJwAsALSOhs2DAlESiMqZjkDhwAJAa/nCgwJRAvgpm/s6AWABoHWU5fCgQJQE2ue+TgBYAGg9m/cFiZJAi2YBIAAsAPQ2roxIlAh2Ih95o3djASAAgFIOvwtESaCEj38TABYAIiKiRGIBoLW0z+8CUQLYXACO1uFBn4iIKIFYAAgAvwhESeFr7u60Fr8IBADQojgsSESUICwAtA4LAFEiKM19nQCwANA6lsWvAlEy8DFAWotHfSIiogRiASAAgBbhd4EoAZS2OQJAAFgAiIiIEokFgAAAls37gkSJoDjaR2vxi0BElCA86NN6/C4QAEBr8UxnIKIA2Mo1HYHCgQWAAACWQsV0BiJqPt/T3NcJAAsAreOLqprOQEQBsFj2aS0WAFpLCw8KRAkgwhEAWosFgAAAIj4PCkQJYFvpsukMFA4sAAQAsGHxoECUALalWPYJAAsArSPK40GBKAk0WPYJAAsAracUDwpESWBzX6e1WAAIACBl3gIgSgRtcbSPALAA0DqSqfKgQJQElseFgAgACwCtIwIeFIiSwLK5rxMAFgBaRyAuIKZjEFGzVVkAaC0WAAIAaDtdgbAAEMWfqplOQOHAAkAAgDxQ4vmfKAGsatF0BAoHFgBaa2B5kbcAiOJOgJ25DgCtpUwHoPDwnv+VVlaK3wmiuBLR9s5fsE3HoHDgCAC9TcM3HYGImkm4j9NbWADoLUrBM52BiJpHwH2c3sYCQG8R0Tw4EMWZCB8BpLewANBblICPBxHFmnAfp7ewANBbBCwARHGmoKqmM1B4sADQ20Tz4EAUZ6L5zg96CwsAvUXA54OJYo4FgN7imA5AjSELFtiVLXsmekpXWjtG96pdpgxnOJ8rhBHFmAhKQ/0zA3+4clzK9idZsLaCFt+3rX9mS5Un1YEze5uRkYLDAhBh8sjFOVelj9VQJ9Swai8LyKQB1PpXVapL5z8pCrd4cH/ZOvmMFfV9oPQ1NzERGdZTz2+Sx69OuTXveLHwXxC9D0RBIIACLK1Ry6ar1aXzb4Po72X2nf5ss0NTc/AWQERVHr1q+5rKPC1Q1ypgfwCZd/znLIB9leCilKT+WVs6/yJ56IrOzX6o1t3NyktEIaBk9eZ+S/XReYfXXP8vonAdBPts5LdlABwNpR6vPjrv8MaGpKCwAESQPH51uxL/HgDb1/HbcwLMrtnyfGXpFZ/d5Odamz84EFF0iahVG/1vS+a3VpfO/wVE3QbI++r7RJWGqBsrD1+xY6MyUnBYACLIrbnfA7DdkP6QwgQFua22dP5FsmDBBtcCt0Xqu1VARNFk4c0N/XJ56ZXb1jJ4FMBxw/jUvLLl0pEFIxNYACJm8NFLx4vC14f5x5UAs2tbr1ogi+dm3vVfZcMHByKKBxG88e+/Vn3k8p0s6IegsMsIPvrg6qNX7DaCP08GsABEjCPpYwGVHuHHHFnrsO+Qpy9seecvivivj/BziSjEUspa9s7/XXvkyj2Ush4EsNVIP1uJHD/Sz6BgsQBEjIKc0KAPOsgt5Re+cyRAV0vLNvVHiCjiUs7y9f9v5Q9z3wel7xZgXCM+WoBjN3Z7kcKJBSBCyo9dvh2Ahg2zCXBgrdP5mUiXBQCehVWANOrjiShsPOkFAHls3mhl2YsbdfJfZwv3Pas/1MDPoyZjAYgQS+z9Gv+p8sXao2P/BwByZbtXtG78JogoHHL9PSJdlqvVTQB2aPTHa60/2ujPpOZhAYgQgezfpI8+t7L0is+qA6cNQoRDAERxJKLVdl+t1B4b+00BPtmMTSioJlykULNwJcAIUcDezfto+XF16bwfQ/satsP7eEQxI9CoLp3/OATNG6ZX2Ktpn00Np0wHoPqIdFm1R8cOAMg3czt2vgMqnW3mJojIAPFc+INrmr0ZnZZqq9p3Fl8sFgG8BRARlUfGbI0mn/wBQIRzAIhiKZh926oh9f4gNkQjxwIQEcqy6ln2d+TED2QzRBSwoMq91fjJhdQcLAARYUGGtvTvMPEpAKJ4Eh1MuRettg5kQzRiLAARIQpbBLMhPgRAFEsBjQCooI5VNGIsABGhtIwPZEO8BUAUS6KDKvcqmGMVjRgLQERIUDsVbwEQxVNw5Z4FICJYACJCKYwOYjt8CoAopoLbt0cFtSEaGRaAiBBBIagNcR4AUfwENQkQQMvmfwuFAQtAVCi0BrWpAA8URBSEYIt9MBcrNGIsANERWAHgRECieAm41Ad3rKIRYQGIDGn6KoBv8VkAiGIl2Lk9wR2raERYACJDpYLaEhcDIoqZQEu98GViEcECEB2BvblReAuAKFaCfbpH8S2zEcECEBkBtmpOAiSKlYDnAFgiXTy3RAD/kSJDBVcAuBYAUbwEPar3xATeBogAFoDoCOysLJwESBQvvhfk1gR7nhToBml4WACiww1uU8J5AEQxEuzEXnGVUlxNLAJYAKJCoRbo9vgkAFEsrJ0AGOT5WAV7rKJhYwGICJEgRwDAtQCI4iLwfVlYACKCBSAiVKC3AADRvIVHFAuB78scAYgKFoDoCLYAjFsU5AAAIABJREFUcA4AUSwE/24PjgBEBQtAdAS7U/EWAFEsBF/mOQIQFSwAUSFBTwJkASCKheDLfLDzlWjYWACioxzkxkT7wU4cJqLmCLrMC4rBbpCGiwUgIhSkP+htciIgUcSJBD4HQCn0BbpBGjYWgIgQSwVeAIKfPUxEjWSixAtYAKKCBSA6gh8B4ERAomgzsw8Hf7FCw8ICEBFKJPBWLZpzeYiizMQ+rIQjAFHBAhARAhO3ALgcMFGUmRjFEyv4ixUaHhaA6DBwC4AjAESRZuBxXiMXKzQsLAARoYCewDcqAghHAYiiysQkQAuqO/CN0rCwAESEKFlpZLucCEgUSWvX8gh+MQ8NvSLwjdKwsABEhKXVKiMb5qOARNFkaDVPy9DFCg0dC0BE+IChEQAWAKJIMlTefTfNAhARLAARkbF8MwWA7wQgiiRTt++yVtHMaCUNGQtARKjJM/oR8PsAAAB8EoAokgwt5d2v9p0V/HGKhoUFIFpWB71BEc2XAhFFkZHbd4bmKtGwsABEiCj8M/iNCl8KRBQ1AoiYuAUgLxjYKA0TC0CEWBp/MrJhIwcSIhou0Z6hkTv1pImt0vCwAESJUkYKANcCIIoYY0/viJmLFBoWFoAIEWVmBIBLAhNFi4iZAiCOesrIhmlYWAAiJP3qmOeh0Bv4hvkoIFGkGBm1EyzP7jX1peA3TMPFAhAhasoUH4KHAt8wbwEQRYuJWwAKvw1+ozQSLAARI1C/C3ybYmZNcSIaHhNP7ijgwcA3SiPCAhAxluU9YGK7fBSQKBpEazMvAdI+RwAihgUgYtJ7z3gaMLAeAN8JQBQNZsr6c9n9ZrxoYsM0fCwAEaSAhUFvky8FIooIMwXgdhMbpZFhAYggX+SOoLfJWwBE0WCirCtI4BclNHIsABGUra5+UAErAt0onwQgioTAHwEUvJSaPO2PwW6UGoEFIILUgV0eIDcEuU2+FpgoIoJeulvhF0opPiYUQSwAESXa/mnAWzT0chEiGoqgy7pYcmOgG6SGYQGIqMx+pz4HINgXb/A2AFGoBf0IoAgeyu592t8C2yA1FAtAhCml5gW6Qa0D3RwRDVHAo3QK6vJAN0gNxQIQYalu78YgJwPySQCikAt2H309nbZvC3KD1FgsABGmDplRFcE1QW1PhCMARGEmfoD7qMI8Nelkvio0wlgAIq4m1jwAxUA2xlsAROEW1C0Ahd50uXZVMBujZmEBiLjCfqeuhODKQDbGWwBEoSZBlXTBZerAmcG/mpwaigUgBtJp54cABpu+Ic1HfYlCLZhHAPvSnrosiA1Rc7EAxICadPJqQOY3eztcB4Ao5ALZR+Ui9dGpPQFsiJqMBSAm0n7uexAsb/Z2uCIgUXhJ89cAWJZOpS5u9kYoGCwAMaH2/68BpfDfTd8QnwQgCidB8xcBEpylJp1cau5GKCgsADGSem3sTwD8qakbCXCVMSKqn6Dp5fyR9D5Tf9XsjVBwWABiRE2Z4ivL/yqA5j2byxEAonBqajmXGmw5iS/9iRcWgJhJ7z3jaSh1adM2wBEAonBq6vwcdX7mI6c938QNkAEsADGUduwuAP9oxmdzNUCisGpWOZc/p3v885v04WQQC0AMqUknl5SlvwRIreEfzgEAonBqzuhcVWl1rDpkRrUZH05msQDEVHrv6Y9DqSY8FcAGQBRKTdg1BXJWer9pTzX+kykMWABiLL33qgsU8EBDP5RzAIhCquH75sLM5Gl83W+MsQDEmFJdOmXJ0RC8ZDoLEUXK39KV2vGc9R9vLAAxp/Y+bY2y/SPRoDcGBrDSGBENQwP3zQHYciRf9hN/LAAJkN57xtOAfA0NGSNkASAKp4bsm75AHcdH/pKBBSAhMvuctkBETR/xB6kGhCGiJhj5zimQWdl9pt7RgDAUASwACZLdd+p8CC4a0YdwAIAonpT8T3af0+aajkHBYQFImPQ+U88C8LPhfwKHAIjCaCR7pgBXZCaf1vyXiVGosAAkjFJK0pOnfk2grhzmn290JCJqhGHumgJcm5m8auS3BylyWAASSCklmcmnThPgiqH/ad4DIAqnoTeAdSf/U5Tq4hrfCcQCkFBrS8Cq6Qpy8RD/ZHMCEdHIDHXXFPwgM3nqyTz5JxeP5oTKo/NPV4KLUUchtLKtsLKtAaQioqEQtwK/WNej+76IOj2779T5zc5E4cYRAEJ28rTLAPkSgLLpLEQ0XHVdzxUhchRP/gSwANA6mX1OW6Asfx8A/9zkb+QkQKJw2uy+Ka8qpT6W2fe0WwPJQ6HHAkBvSe894+l0yvmIAu7f2O/hUwBEESS4Ny3ZPdKTpz5hOgqFBwsA/Qs16eTVqclTDxKFMwCpbeB3BB+KiDZvw+XcA/Cd9LKxh6h9T+wOOBGFHI/mtFG1xy6fJNq6AcAO63/NbumASmUNpiKiDRHfgz+w+u1fUHhBQR3Lq37aGI4A0Eal957+eDpf+rACLgHgr/1VdkaiUHp7BMBTwI/SjvNhnvxpU3g0p7rUHpu7u2j7Wrt11F7KSZuOQ0T/TjS8vlVPKy1fT+837f+ZjkPhxwJAdZMlXY4/dqeaslP83hCFjmjrzecy6sAuz3QSigbeAqCh4smfKJwsHACu6kd1YwGg+hUmtEDxK0MUTgr488550ykoOng0p7qVKrUWXv8ThZjOtJiOQNHBAkB1sy0rr/iVIQqvVJUjAFQ3Hs2pbpbtt3AKAFGISZpv6qK6sQBQ3ZSV6uT5nyjE3Gqn6QgUHSwAVDcNe7TpDES0cb6juI9S3VgAqG5KMMp0BiLaOO373EepbiwAVDc7ZXeYzkBEG6cA3gKgurEAUN20r9pMZyCiTVCa+yjVjQWA6mcpPmJEFGKWsvmqTqobCwDVTRR4cCEKMdHcR6l+LABUN4HKmc5ARJugJGM6AkUHCwDVTUHx4EIUbtxHqW4sAFQ3JSwARKEmvAVA9WMBoCHQKdMJiGhTlGM6AUUHCwDVTykxHYGINkV80wkoOlgAaCi06QBEtEks6VQ3FgCqnygWAKIwE5Z0qh8LANVPCQ8uRGFmcQSA6scCQHUTXl0QhZuAcwCobiwANBQ10wGIaJO4j1LdWABoCKTPdAIi2jgBekxnoOhgAaC6KQgPLkShJt2mE1B0sABQ3SztrzGdgYg2TpRabToDRQcLANXN48GFKNQsy1plOgNFBwsA1c1y9UrTGYho42yf+yjVjwWA6qYd/RqfMiYKsUz6TdMRKDpYAKhuaeBV4VLjRCElgMq9bjoFRQcLANVNTTq5BK090zmIaANEamr7Q6qmY1B0sADQkChI0XQGIno3ERk0nYGihQWAhkZrrgVAFEJKNNcAoCFhAaAh0SKcZUwUQgKsMJ2BooUFgIZERP/ddAYi2hB53nQCihYWABoSS7sPms5ARO/mC35rOgNFCwsADYlb9u7hWgBE4ZNG/nemM1C0KNMBKHq8537tKttxTOcgonVEavbOX8iYjkHRwhEAGjq+FIgoXMRbbjoCRQ8LAA2d+JwISBQiIvir6QwUPSwANGSivQdMZyCityngDtMZKHpYAGjInIxzNYQzAYlCQQDLTv/adAyKHk4CpGHxn/t1P2ynYDoHUdKJ9tc4u0wZYzoHRQ9HAGhYxK89bToDEQGA/6jpBBRNLAA0LErJLaYzEBHgQ91kOgNFEwsADYvl+z8V0aZjECWcSNqr3WY6BUUTCwANi9rjq73K8143nYMoyZTWL6jdj+crumlYWABo2LR2bzCdgSjJROsrTGeg6GIBoGFzBt3vitZ8HpDICPGtDus60ykoulgAaNjU/v81oPza30znIEoicb3H1dZTyqZzUHSxANCI+K57tekMREnk2+pi0xko2lgAaERS/dtcLtr3TecgShTRlfTOf/mN6RgUbSwANCLqwAM98dwHTecgShLxvZuV6uJzuDQiLAA0Yo54pwo4F5AoIGLb6bNNh6DoYwGgEVMfOuFv8Kr/MJ2DKAlEu4+pnT+/3HQOij4WAGoIG/oM0xmIYk8AGzLVdAyKB74NkBrGf/amV+Gktzadgyi2fO8pe9ej9zAdg+KBIwDUMOK7HAUgahYBLM872XQMig+OAFBDec/c9JJKpbcznYMobsR1H3N2++Jk0zkoPjgCQA2lXf8YCJ8IIGoogdi1zLGmY1C8sABQQ6X3PO5R7VUfN52DKE7E925Tk4540XQOihcWAGo4p2IdKdrnIiVEDSCiq3Yqe4LpHBQ/LADUcOojX3pNe1W+I4CoAbRbO1vtdPiA6RwUP5wESE0hIsp/fsEaZTudprMQRZXS3ovWLke/33QOiieOAFBTKKVEtPc5gGsEEw2HiNaq5n3adA6KLxYAaprUbsf+XrzKLaZzEEWR0t731B7H/t10Doov3gKgphJZ4vjPr1ylbKfDdBaiyPC9f9i7Hr296RgUbxwBoKZS6kBPV0ufhnBxAKJ6iNau1Z4/wHQOij8WAGq69J5ffVS75fNN5yAKPQG0756stv7M66ajUPzxFgAFxn3mpmetVHpX0zmIwkp893Zn1y9+znQOSgaOAFBgnJK/n2ifzzMTbYDS3qv2LtbnTeeg5GABoMCoycf12zX8B0T7prMQhYloXVV2dh+lpnDfoMCwAFCg1B5TnoJbncHVAYjWEkBE9KfVToe/YToLJQsLAAXO3v24K8St/dh0DiLjBFDizkztevQS01EoeTgJkIzxnr3pIeWk9zedg8gU8WpXOh/80lTTOSiZOAJAxti72gfAc/9pOgeRCeLWHuDJn0xiASBjlJriW6ni7qL9NaazEAXKd5+xP/jCQaZjULLxFgAZJy/cOMb37BeV5bSZzkLUdL73qqXU9mqXKTXTUSjZOAJAxqkdj1ltQ30QWpdMZyFqJvH9lZZSu/DkT2HAAkChoHaZ8qoF9yMiumo6C1EziO+vtN3UjmqXKYOmsxABLAAUImqXY563vcEPQXTZdBaiRhLfW227qR3VHkf0ms5CtB7nAFDoyDM/3UnbLU/CsnOmsxCNlHjeSjuvdlDvm9JnOgvRO3EEgEJH7fbVv1qVyp7QfsV0FqKREN9faWfd7XnypzBiAaBQUnse/xev1H0rXxtAUSW+C7e45gq1/XH9prMQbQgLAIWWeF5RD67hu4MocsRz4Q92w9K+azoL0cawAFCoidZgCaAoEc+FX+wGhG+8onBjAaDQW1sCulkCKPTEq/HkT5HBAkCRINpnCaBQW3vy7+HJnyKDBYAi4+0SoE1HIfoX4rvwi708+VOksABQpIj2oYtrAJYACgnx1074g/A7SdHCAkCRI76/dqgVvNois9bOT+GVP0UTCwBF0tqrrl6wBJAxoqGLPRDhvBSKJhYAiizxqvBLA6ZjUEL5xV4IH/OnCGMBoEiTWgm6UjQdgxLGL/ZBPL7Rl6KNBYAiT1cGIDW+QJCCocsDEJffN4o+FgCKBb/EKzJqPqmWoKsccaJ4YAGg2PCLPVwoiJpGPBd+me/1ofhgAaD4EIEu8skAajwRDV3qNR2DqKFYAChWxHfhl/jqdWosXezl6BLFDgsAxY7UKrxPSw3jl/o5v4RiiQWAYkmXB3nQphGTaglSK5mOQdQULAAUUwJd6uUqbTRs4nPSH8UbCwDFlmi9blIg0RC9NaGUKL5YACjWxHOhy4OmY1DE+OU+Tvqj2GMBoNjTVc4HoPpJrQSpVUzHIGo6FgBKBF3q5fvaabNE+/DLfMEUJQMLACWCaA2/yPUBaBPW3/cXLiRFycACQIkhXhW6yke6aMN0ZYCv96VEYQGgRNGVAYj2TMegkBGvxnJIicMCQMkiAs1bAfROIlznnxKJBYASR3wXuspHA2mttY/8cYIoJQ8LACWSLhd5v5cgbpWP/FFisQBQQq2f8W06BxkjGrrEpX4puVgAKLFE+9AVPvOdVH6pj++KoERjAaBQ6rr7ulH/dNHR7O3oahHi8VZA0kitAnGrTd/OCy7GnnTf1e1N3xDRMCjTASh5Zt8/f68VVe9LPWLtWRRsXVWqs6ysfFWplAaUtiwopeD4Pv7U2fzJWcp2YLeO4d6QFKLh968J5Or/I90KZceBiMDSGhYgaS1uDrqYgfTkBa/moR8d5elfX3vEzKeaHojoHXjIo6a5eMHFuefb7JNWedbnVyu1y4BSbVXlOLDq/NoJ8Hi7i0xzYwIArEwrrFxrAFsi0/xSH6RWDmRbe/RY8Gy7vt+sNTLa9woivR2in+20ZEGt2POTm6d08UUW1BQsANQwFyyav8WzlnfeG7512CplTazYjgM1sq/YlZka9s8E8TVVsAujoOxUANsiU8Srwh/sCWx7H+y1AWsEd1pFkPV9d7T4r42x9W1tquV7Pz74xO7GJaQkYwGgEZlx9+Vf/ZvG7OVi7VhuwAn/352gqphTCGaqirId2IXR4G4RUyLwB1YF9sz/ix7wuVKDC6UIcr7vjhP9/ARLfe/6Q6b9prEboCThkY6GRETUtHvnnftnF9PetJwttG039Tu0l67hJx3BfU2tbAFWtiWw7VFwghz6B4CrioL5frqp27A8X8aJ9/pWSl1446GnzW3qxih2WACoLjPvmnfCc77892uWs22zT/rv1O57eLgz2If17cJo3gqIGfFq8AeDHTk/rkfwtN3cAvBOlufLluL9faIv5/zi8Bm3BLZhiiwWANqouYt/2faY9Mx/AfYX+h0naySECP7Y5iEX4DdV2al1twIoFkTDH1gd+HK/e3crlBwn0G2ul/U9dxvt3jshkz32mk+ezJdf0AaxANC7fHPx3M88otXVr9upCSOawNQg307VcFSQDQCAlW2FleVTAXHgl/ohtWDf9FcFsGefA9XgOTFDpjUmaPeV9/hywi8+O+NBs2EobFgA6C3TF8879U8a31vppDvD9M3Y26/ius7giwhvBUSfiaF/ALitrPEtN4gHWOslaHPdwe0hZ9902PQrTKehcAjRYZ5MmXrX5ecv9a3ZxVQqlGe7Vs/F0lHBb5e3AiLO0NA/AHy9V+NRK0wF4G15t1bdCfq/f3XYjB+azkJmsQAk2LS75577qG9/e8BJhfNItZ4IlrZ5aDXwbeWtgOgKetb/O03qVqgauv9fr7znVj8A+c5Nh552vuksZAYLQAKdteiyL/9OnKt7U6mc6Sz1OtGq4XQTDQC8FRBFpob+AeDPLnB0OTrflza3NriTo7/4y4NnLDKdhYLFApAg3180b4ffi9z7opPexvjkpCHa0qvhnlFmMvNWQNQI/P7VEG3mTX9n9Gk8oMI9qPYuIhjn1d54fyV1wM++cMrfTcehYETrLEDDIku6nKPLY5Y8pZz9wzCrf1gMPA74TrwVEB1+uR9SDXbW/zvt060wGPLh/43yNXb03cULPzP9UNNRqPkiejagep1792XHTCqNLT1lp6N78gcApfDzYvCTudbTlUGIz9cGh514VaMn/2UaGLAjevIHANvCC+nMIbvfOa96/OL5XzAdh5qLIwAxtXjx3Lb5ov70Nzv93qgN92/Me7waFhm6DQAAyrLX3gpQES5SMSbiQ/d3B/Ka3435Zr/GHYG8v7L5RATbeNXnOkvde/KNhPHEI1kMnbto3onfgNP9dycTm5M/ALxqpVA1uH3RPvxyv8EEtCm62Gf05A8A9/l1vvo3ApRSeDWV3fXPLeNKxyyce7zpPNR48Tk7EGRJl3NEafTSP9vpSY1+K19YnG5XcWKL2d5q59qhMpF5gCIRdGUQujJoNMMjVY2Tq/G4+n8XEWzn1R6757Dpk01HocaJ51kigc6//9K9/q+Sfrg/5QT39hEDxnsu7jewKNC/UrDbRkNZEb7XGyPaq0EXu4Fg3xn1Ll/sFjwf790PBdctfbBif4hPCsQDbwHEwMx75557vZt9LO4nfwBYYTt4zTd8pIdAD/YABlaYo38l2ocu9Ro/+VcBPJ+AQjiQSuWX5vHCMYsunmk6C40cRwAiTKTLOvqu0f/vKSv94bgO+W/Ix3UVl3WY767KScNu6USSfvahIhr+YDfE90wnwWWDgut07Pv320Swg1v77Z2fmf6fpqPQ8PHIFVF//euPC2e8WH7pJSc9xnSWoDm+jz91huPqW6WzsPMdpmMkjwB+sQfimZwW+raPdQPdTnRW/2uUMTV39cTyqol8SiCazF9G0ZBdsuSSDx37YmVNEk/+AODZNu4oh6MASK1ifPJZEulyf2hO/n9zBWsSulT06nRqzN/zY/un3n3x+01noaFjAYiYb98778vXlHNPDjjhfHNfUK4ph2fwSlcGoatF0zESQ1cGoWvmFvv5d98ZlETfBSqlUpklOvfCCYvnHmQ6Cw0NC0CEnH3fZXN+7dvX+7aV4MPNWq9YDnqMTwZ8my4PQFdYAppt7c85PCMuPb7gGZWge/8b4du2tVSl7jlu4WUnms5C9WMBiIjpd8/70a1e9kKx4rPQyIhYFv53IDwFAAB0ZQC6Gp6TU9zocn/oRlq+MygA+/halo3HnMy1UxZd/n3TUag+/OZGwO8fuOTDJ7r5JxI9zrgBlu/jiXYNJ2Q11sq2wMoWTMeIFb/UDwnRsD8AeBrYs8+CtlnK/4UIPgp79I8PPtHM+5ipbiE7dNKG7Jlx3jT9nHMYadvGvFI4JgO+k64U4Rd7YPzh9DhY/6hfyE7+ADC3qHny3xABePKPBhaACGjZf/obee2F70wXAjfVwnkAFrcKf2BNKJ5Rjyrx3bU/Qy+cT5jd5Ibzu2dazvfD+Q9G78ICEBHbKP266QxhVHIc3F4O55W2+B78wTWhu28deiLQ5QH4g2sg2uzLfTbmlpKg4sR/5b/hGAv/BdMZqD4sABHxcUv90HSGsLo8RI8Evsv6k9nAauiQXsmGydqRk9VrS1M4ex0AYG4lxN85wyYAZ5rOQPVhAYiABYvnju1xqxOV65qOEkpv2ik8XQvx2QJrRwP0YDf8wZ7QDmmbJF4N/mD32tX9QnrVv96iimBNAlf9q4equRjrVz7ctXhum+kstHmssSH1rYWX7LPK9ae96vqfeKbqj69oQbYlh3xbq+loobSDX8P/dUbn66zsFKxMHiqVTe67BEQgtTJ0rRSpuRIf7QZ6WQA2qNRfRKVYQkYBO6Wd1dtkrN/mbX3hvMPPftx0Nnq3hB55wmnKb37wGV/U6a/U9D4vuzr/7//ddmy0jzX+LtxQEhHckvewQ9SOy0pBpTKwUlnATkNZ8R6UE9GAW4N2y2uX8g33wM273FYWfMvlwj8b07eqG7737hGcbR2rtE3GWlqC/Oiuo75xl4FotAEsAIadu+iSD3VXvW8/WXU/9VJV3nXS/3cd40bB4qNHG/R+v4pbO6N9AlW2A9gpKNuBshzAtqEsG5HbVUUgWgPag/geRHuAVwv98P7m7NutMMDJfxukfR+9Kzf/9N+WKau4fcq+34PzrdunzHo2gGi0ERE7qsRD1+K5basq1XP/7vrHP1P2Jwxl8LOlrRWZllzTskWaCG7Ie9gtaqMAdVFvjw6okJYc0ev+j0bkLu3r8KuSxve8jOkYoVUpllHqr38lTEsB70/bq7dLWb9+fSB13u++OrO3ifFoA1gAAvS/d/zosGcq/vl/rHi7FLUM62efSqdRGN3e6Gixsa1Xw8JR/FpT403uVijy6n+jBrr74FaHN8E1ayn5cNZ+Yryj5lx75FkPNjgabQSPlE0mCxbY38+/Mufxsp75SNEb34gB0M7xo2N/r3j4BD/NupiU5lebGueGksYPePW/UeJr9KxcM+LPUQB2yzird8ral4393OzvdynFBdCaiEfJJnnkgYsn/q4kP7q/6B7xTMVv6KyhlvYCMvlsIz8yVrb2a1gcoScCKNw0gL27gQpn/m9UpVRGqa+xL8J6f8aq7JtzFuzptJxx7GFTexr64QSABaDhHv7txbvc0qevuqvo7rfK0035+aYyaRRG8TbAxogA12VrmJzh15tG7n/7BQvAmf+b0r+mF16tOeuUjLGV/mTBefDjhezXj/jPGS82ZSMJxSNkg7zw8BUfvaG7NG9Bf2231V7zJ0B1jhsNZfM2wMZM8Gq4l3MBaIR6BfiPPgt8DffGaS3oXbG66dvptC05pJB67Kg268T9Pz7r+aZvMAF4hByhF3936V4LBr0rf9lb23NFACf+9fJtrcjyaYBN6kpV8fkcSxIN33E9gqdtXv1vylBn/4/UKFvhiLb0s0cW1Jf3/vjspwPbcAyxAAzTqw/P/eiv+rx51/dUd3vTwIv67JSD9jGdgW83SrK+h8c6hetd07A8XRMcV04ld6XGOvWt6oHvBb+S4/oiMKXTOW7P/zjjmcADxAC/2UPU/fjVH/zpm4O/+FlvdfflAV7xb0j7mE7YKT6WtCmfRxVdbawANHQHdINr/m+G53roX212ft4WjoWj21K//+K49mO3n/z1ZUbDRAwLQJ1Kj87d6je93lXX9tYO+UvFD8XPLZvPId/OdwNsivI1ftvhYQyv4mgI+NhffYp9A6iWKqZjAADem7b0UW3phXNarK+oA7moUD14VNwMefjHhVuKA/N+1ls9bmnZC9WlpKUUOsaP5hDlZnzQr+FGPhZIdXIF2LvXgssltzdNBD0r10B0uFZ93D1re0e1ZeafnOubow7sis5bpgzgUXEjREQtuveyU28ZrF2wcMBtCddX/G2tHQWkc1wTYJMEuDpbxb6ZUPU3CqnZ/Rr3glf/m1MtVVDsGzAdY4MUgI+3pgYObXFmHv/pWT82nSesWAA24M77Lzvw/gH3+gX91a1C/pp5Tgas0yjPxYN8kSJtxt9cwZGlFBRH1TbL1OS/oUgp4BMtqVf3anWOmnHwrD+azhM2/Ja/w+LFF7zvnpr16zv6a3sOhGxYa1PaRnfASXOy0uacbldxYgtHAWjjDuwGVnPi32a5tRoG1vSZjlG3nAI+1uI8+sF87qizD5nBiYLrsAAAeH7J/NZfDpR/fHt/7aiV3vBe0mNSOptBa2cK//jxAAAOXklEQVSb6RihZ/k+Hurw0carO9qA+YMaV2kO/ddjsKcftUrVdIwh67At+VQhdefeOfnS8Z86s2g6j2mJPhKKiPqfOy/+zt2D7tl/rzZ2vf4gKQW0jR0Fm5OWNosTAmlDVvqCT/Y70Fxdc7O076NvZXekX/i8bcp2P9mSuvL7h886QykV5b/KiCT2SPjdhRef8rti7cKnKn4snqPLtOTQ0haLv0pTCYAfpGs4LJvYrz5twGHdglecyF4DBKrUN4BKSB79G6kPpK3i/nnn3PM/d+Zc01lMSNxR8PyFFx7wRFX/7MFBb5tY1T6l0DFuNCwrcf+kQ5b2PSztFL7ehQAA1xU1LvM59F8P8TV6Vq1BpC//N2CPrNO9dw5f/+7hZ99iOkuQEnO26Fp80c4vFP1f/a7kfdCN2Zd3vWxrHvlCi+kYkbCPruKaDg73Jt0bnuDgAQfCof+6lAcGUR4sm47RFA6A/2hJ/XlnWx3ddeSZz5nOE4TYF4CLFl405i+eXP/bQffgAT96E/yGQlkWOsaOguIowOYJ8KNMDQfxVkCifapH8AZf9lMXLYK+FWsgEtMrqHVyCjiwJfXoDhnnC+d9ZtbrpvM0U2yPfl1LupxiX+ul9xTdU95wdWJmx+VaW5Ar5E3HiISU5+OhDg0+GZhMFw5qXM9Z/3UrDxRRHiyZjhGYMbbSnyqkb35fOn3CjENmRO+RhzrEsgDMvv2Cs/5Q9L7zj5okbok8pRQ6xo2CsnhWq8dufhU3dPJnlTTPuMCxRQfgaFldRGv0ruyO/dX/hmyTtmr7Z+35lx151izTWRotVt/+b95+0QmPlv1Ln654HaazmJRtySPfxrkA9RAA5zhVHJtnCUgKTwP79SqUHL5Js17F/kFUi/G891+vnbP2wH651NnnHz77StNZGiUWBeDixRd87IkSfnJf0X1vhBbwa551owAWRwHqorTGHa0etnVisTvQZhzfI/gT7/vXTfsavTGc+T8cCsDkfOq1PTJywv8cfvYS03lGKtJHvAsWXrD9c1Vc/0DRm1xN4NDUpmTyWbS0F0zHiIwO18XvR0d8h6DN+nlRcKGf5r/zEBR7B1Atx+O5/0ZJK+CTLelnPlhQR8/51Jy/ms4zXJHcD35+//dHP9yXuv63JffTfTGf2T8SbWM64aQ4zFmv/5QqLm3nqElc/dUVHFV0AI6M1c1zPfSv7jEdI7TabUs+3eI8uG9b6ovHfOKMFabzDFWkTp6LF8/N/MGtzb1zwP2v173kzOwfLiedQtvoRE+HGBoBvpOq4ch8pHYLqkNZgI/1KpRtFuKh6F/TC6/mmo4ReuNtpQ9uS9+2e1aOj9I7BiJzpPvmwovO++2ge97fq3xuZyhaO9qQzvFHVi+lfdzaqvE+nidi5XPdghe51O+QVMsVFHsHTMeIlPVPDHQeceacLqW06TybE/oC8K2Fl5z4h2L1omcqfrvpLFFk2WsXBwLfgFe3Fs/Dg6MErE3x8N/9GrfwX3NIRAR9q3qgfd90lEjaNWMPHpC3z+k6/Mx5prNsSmjPCuct+tFhTxbdq/5Y8ieazhJ1udYccgW+KGgodvJquHlUaHcPqtNtZY1v1TIhPtKFU6l/EJWEP/bXCHtkne79c84p/3347JtNZ9mQ0O0WXYt+OOnPZXX97wfdD3imw8SEwtoJgTYnBA7JEVLF/3BSYGT92QW+OGhznf8h8r21E//4YFVjWAr4SM5Z9pF86phvHzbrIdN53ik0BeDaxXO3erRc+dXdg+5+VX7xGs5JOWgb02k6RqSIALOdKr7KtYIjZ7UIPtlrw7M5V3ioOPGvOdJr3zHw3L4p/4hph5/zD9N5gBAUgK4l81tX9pauvH/QO6bb1zzSNlG+vRXZfM50jGjRgqtzNeyb4VczKqoA/rNHoY8z/oesWiyj2D9oOkastduWfLzVvmuPlH/c1MPOMfqMpbEC0LWkK7umt3X+74ruCcv5SF8glFJoH9sJi1dFQ2L7Pu4o+HgPVwoMPQ3gkG7B65zxP2Ta89G3uieR6/2bMMGx/ANaUj8f3TE4revALiMrLQV+ROta0uX09OQveKjsT3vV1dxLA8ZbAcOT8Tzc3akxhk9ThNoxPYJnuczvsHDo34wJKeUdmE/dMimPrwW9hkBgR7MFC7rSj2dafnTfoHfSazzxG5UvtCDbylcGD1Wr5+G+TkErO0AondGn8YDi437DUR4sozzAoX+T3pOy3QNbnF/uPe4906bsOyWQRzCafii78J7rW14uvnnpI2X/hNdcnWr29qgOSqFtTAccvg1tyMa5Lu7pBBxOCQiVb/Vr3MZn/YfFd330renmy35CYtu05R3Ykvr17qn01OMOmdHfzG01rQBcf8+V4x4rDV7zUMk77A2X9/jDxnYctI/p4AJBw/Aev4aFnQrsAOFw/oCPGyRrfkZzBIkI+lf3wvf40HXYbJmy/P/f3v3GyFGXcQD//n4zu7O3t7e71zuB1Iqa2hfUpFohJtfqC4I2RjD2j1SPQrUU+k5NaGMxMebeFNLzKKaGpqQGbKinxQo9WkADSOEAT9QXrSRIAVNabc/mbv/N7OzOzO+PL1q1Ten1bmeuc7v7fJJ7cZO93efFzjwzz++559fXYT6zKME2bfnalonZ+IzIz5mfPzv08b8FevcLTrDirNB0jZzDaMfAxi0QAQ7lqRIQt+0ViSdAyb9R1VIFXs2LOwwyhW6DqeVpc/SjKf7tbbdu+SDK947svNn53ODCYzW29yU3WGbTDn1NozPfBasjFXcYTel6EeCZbsCgb3ssttsaT6gkFbEa5NU8VEuzWmEmEcpwrvvSxivdgbF+V//mU1G8Z+hT5we/+tn8M8na3tddeUtFKjoVmwxj7NyUQJNWaRpxvfQxkmNUCbjKflTRGAH1EjdKCnl+2h8t/DebNGd6acp8Q9WtOw6t//7JMO/VcMLeNDzUW7PU8Guu/JJNib+pGaaBbG83GD1KNeRaEWAkD9DAwKvjuyWFI5wa/hpF6/6tIc2ZWpoynn9b1L5z/I6BhnoEZn7FHxjg6z6dfvAvnrhvUmhqI28RSctCZl427jCaVloIjOQUrqP1gFl1b0lhjJJ/KHaxgqBO6/6tIsOZXJg0Hn2/Vtt8YsPMBgrN6Gp199ODa4658vETgaLOsRZE8wHCSQqJ/VmJT9HEwMjVNbCmqHGSJvyFUrOrqDlu3GGQWdBrsMpHTGPjaP/WA9P9m2ldqRY8uaNjsfIPHq3LFbQ7dGvr6s4ikaInrEZxKbEjJXBLB60HROWU1PhGmcOluRWh+HUPTpGa/lrdJ5P8lXdcb3XlnoHClV57xRuAdfsfWP62YM+dDBTVh9sBY8j25GHS1sGN0xobuI/7uugmIKw3PY1NrgFJ+1eEIgIBe7JETX9tIs/hdlrG6qPfvP/3U71uyivUhgODPz5Sxygl/zaiNZxCGVJSradhjOFxbWFDSdFwtRB2OwobawlK/iEpqeAUKPm3k5JC+kxN/G758PbBqV532QpA/4HB4ZeqQb+i70xbMkwT2Z48GKf17DB6RYBfZjXmU1/AtEkNbCwq/NWkpaiwtNaoTJYgA+r4b1eLLH74j8bClVi79pKnug+tANz91ODwCw4l/3YmhYBTLAP01BDKhJnAV2wDT7oq7lCawj+ExheKoOQfBQ3YhTIl/zb3rqdu6xPvvwh96YC+Sw5s+u3gnqft4B667BMASKSSyORzNG0tJA3g88rHnhyjyYGXsdtR2BUkoA3qnQhLa8AplhF4ftyhkDliSco4+Idv3b/qwmMXnWnbDj20/rBDyZ/8X1D3US1T53BYDMCfeRLLigxjHp1hFypKjZUFjUeURck/ItWyTcmfXORYXa5ctX/71guP/e9Z5NGXh3r3nA5On6Ate8mHsNId6Mxl4g6jNWiN5crHzm7e9sNsH3MUfioS0JwSf1SqZRueO6N5MKRNdDGmbuowFv9m7dZ3gAsqAG8V9UFK/uRyPLcGt+zEHUZrYAyvGxb6igyH6+1ZDTgeaKwoAA8ri5J/hNyyQ8mfXJatNffAnvrv7wwAhl4cWvzIGf8t2sWPXAltIRy9a0WAHV3Akja4/a5pYHNZYZQlQY0l0XIrDurVWtxhkDnOAPDlHL9536ofHuEA8IHNdlHyJ9PhuXVUy3bcYbSUf5sJrHNNrC1qnJWtWRFQAB52FPpKHKPcouQfsWrZpuRPpkUCcAXfAQBM6wG+7Ncp711P0ug3Mm1Wh4V0Pht+P2lyEaYUPqcCPJBjmN8C/y6gAeyqKjzmm/BpoE/kNAC3ZMOrUdmfTF+WM3VjKpUxsjd99a4RW6yJOyDSXKSQkELAStHTXKQYwxluYp/P8XJN4bMJjZ4mHMbkA3ioovG9KsebLAlJ6/zR0xpOsQKfdvYjM+RpsBstXjBPC3573MGQ5hTUfVQKZWTm5cDpJiBajOHvRgJrqsB1ysedlsZdaT717O454HgA/KSq8Cec7+ynuuKsUOdHdgs/iDsU0qTqTN/G/ynkkrgDIc1L+AGciRKUpEl3s4IB40YSQ8LC0qKBe0sKR/251SfgaGCnrXBzAVjtJjDGqbN/NimlYE+UKPmTUMYDdYM5LvQ1cQdCmpsQApXJIjLdOdpFcBYpg2MMFsbqgOlKLNISX7c0+mOoDJQ08IuqwrMBwzhPnFsGMqe5vzhpmAwk7GIZijbrIiFNSj2PfWbfg/JfQtHtOgmPMXTlu5BI0Rz3q0opzFMCNzCNL1rArR0c+Ygz8bjUOFTXeNUH3tMGHMOg3o+rLKh7sEs27c9BItFjMMU+tnebrtH3iUQo3dWJVCYddxhtS2sgoSS6tEIvNBZwjYUmwycMoIcDnRzo5cA1BoPSwITSOCuBktSwAbwnzv2cAkNBM1QZh6YO/ljVHReuXY07DNJCLMbwH+58mWwdrRDTAAAAAElFTkSuQmCC;" vertex="1" parent="1">
          <mxGeometry x="470" y="60" width="70" height="70" as="geometry" />
        </mxCell>
        <mxCell id="8nGL6lLDQIwl6OMTAhl0-7" value="Zookeeper Cluster" style="sketch=0;outlineConnect=0;gradientColor=none;html=1;whiteSpace=wrap;fontSize=12;fontStyle=0;shape=mxgraph.aws4.group;grIcon=mxgraph.aws4.group_subnet;strokeColor=#879196;fillColor=none;verticalAlign=top;align=left;spacingLeft=30;fontColor=#879196;dashed=0;" vertex="1" parent="1">
          <mxGeometry x="210" y="30" width="380" height="150" as="geometry" />
        </mxCell>
      </root>
    </mxGraphModel>
  </diagram>
</mxfile>
